<?xml version="1.0" standalone="no"?>
<!DOCTYPE svg PUBLIC "-//W3C//DTD SVG 1.1//EN" "http://www.w3.org/Graphics/SVG/1.1/DTD/svg11.dtd" >
<svg xmlns="http://www.w3.org/2000/svg">
<metadata>
This is a custom SVG webfont generated by Font Squirrel.
Copyright   : Design Elektrosmog  Copyright 1999  wwwlinetocom
Foundry     : wwwlinetocom
</metadata>
<defs>
<font id="webfontd1YVZ4AI" horiz-adv-x="1071" >
<font-face units-per-em="2048" ascent="1638" descent="-410" />
<missing-glyph horiz-adv-x="737" />
<glyph unicode=" "  horiz-adv-x="737" />
<glyph unicode="&#x09;" horiz-adv-x="737" />
<glyph unicode="&#xa0;" horiz-adv-x="737" />
<glyph unicode="!" horiz-adv-x="778" d="M457 598q0 -29 -19.5 -47.5t-48.5 -18.5t-48 18.5t-19 47.5v809q0 29 19 48.5t48 19.5t48.5 -19.5t19.5 -48.5v-809zM594 193q0 -43 -16.5 -81t-44 -66t-64.5 -44t-80 -16t-80 16t-64.5 44t-44 66t-16.5 81q0 86 59.5 145t145.5 59q43 0 80 -16t64.5 -44t44 -64.5 t16.5 -79.5z" />
<glyph unicode="&#x22;" horiz-adv-x="634" d="M543 1202q0 -29 -19.5 -48t-48.5 -19t-48 19.5t-19 47.5v498q0 29 19 48t48 19t48.5 -19t19.5 -48v-498zM227 1202q0 -29 -19.5 -48t-47.5 -19q-29 0 -48.5 19.5t-19.5 47.5v498q0 29 19.5 48t48.5 19t48 -19t19 -48v-498z" />
<glyph unicode="#" horiz-adv-x="1097" d="M1008 915q0 -29 -19.5 -48t-48.5 -19h-131l-47 -221h110q29 0 48.5 -18.5t19.5 -47.5t-19.5 -48t-48.5 -19h-139l-94 -451q-6 -29 -27.5 -43t-50.5 -8t-44 28.5t-9 51.5l88 422h-197l-94 -451q-6 -29 -28.5 -43t-51.5 -8t-43 28.5t-8 51.5l88 422h-115q-29 0 -48 19 t-19 48t19.5 47.5t47.5 18.5h144l47 221h-115q-29 0 -48 19.5t-19 47.5q0 29 19.5 48.5t47.5 19.5h142l92 438q6 27 28.5 42.5t51.5 9.5t43 -30t8 -50l-86 -410h196l93 438q6 27 28.5 42.5t50.5 9.5q29 -6 43.5 -29t8.5 -51l-86 -410h104q29 0 48.5 -19.5t19.5 -48.5z M475 848l-47 -221h197l47 221h-197z" />
<glyph unicode="$" horiz-adv-x="1159" d="M1020 391q0 -76 -20.5 -143.5t-64.5 -121.5t-112.5 -91t-163.5 -49v-105q0 -29 -19 -48t-48 -19t-48.5 19.5t-19.5 47.5v99q-113 6 -187.5 49t-119.5 98t-64.5 111.5t-23.5 89.5q-4 31 11.5 52t37.5 26q31 8 50.5 -9.5t33.5 -56.5q41 -115 107.5 -164t154.5 -57v606 l-131 68q-104 53 -156.5 133t-52.5 202q0 90 29 154t76 107t108.5 65.5t126.5 28.5v51q0 29 19.5 48.5t48.5 19.5t48 -19.5t19 -48.5v-51q63 -8 113.5 -29.5t86.5 -49.5t57.5 -57.5t31.5 -52.5q10 -29 5 -58.5t-33 -39.5q-59 -20 -95 33q-31 43 -72.5 73.5t-93.5 43.5v-523 l134 -69q37 -18 76.5 -46t73.5 -70t55.5 -102.5t21.5 -144.5zM524 1348q-33 -6 -66.5 -19.5t-60 -39t-44 -66.5t-17.5 -103q0 -53 27.5 -108.5t115.5 -98.5l45 -22v457zM868 377q0 66 -21.5 110.5t-52 75.5t-61.5 49l-49 29l-25 14v-528q104 23 156.5 89.5t52.5 160.5z" />
<glyph unicode="&#x26;" horiz-adv-x="1363" d="M1235 834l-20 -21q-13 -14 -26 -36.5t-22.5 -57.5t-9.5 -82v-182q0 -98 -18.5 -182.5t-64.5 -144.5t-123 -94t-191 -34h-228q-115 0 -192.5 38t-124.5 102.5t-66.5 151.5t-19.5 185q0 76 8 152t35 141.5t77 115.5t136 77v43q0 242 113.5 355.5t308.5 113.5h53 q29 0 48.5 -19.5t19.5 -48.5t-19.5 -48.5t-48.5 -19.5h-53q-82 0 -137.5 -27.5t-89 -74.5t-49 -113.5t-15.5 -142.5h240q29 0 47 -18.5t18 -47.5t-19.5 -48t-47.5 -19l-246 -2q-86 0 -135 -33t-74 -85t-31 -117.5t-6 -133.5q0 -76 12.5 -138.5t40 -107.5t74.5 -69.5 t119 -24.5h276q70 0 116 21.5t73.5 62.5t38 99.5t10.5 134.5v182q-2 49 10 102q10 43 35 94.5t72 94.5q23 18 48 20t46 -18q20 -20 20 -46.5t-18 -49.5z" />
<glyph unicode="'" horiz-adv-x="278" d="M207 1202q0 -29 -19.5 -48t-48.5 -19t-48 19.5t-19 47.5v498q0 29 19.5 48t47.5 19q29 0 48.5 -19t19.5 -48v-498z" />
<glyph unicode="(" horiz-adv-x="684" d="M573 1475q0 -29 -19 -48.5t-48 -19.5q-66 0 -100.5 -19.5t-51 -58.5t-22.5 -97l-15 -136q-6 -49 -8 -140.5t-2 -197t3 -209t7 -172.5q4 -70 9.5 -127t24 -98t54 -63.5t101.5 -22.5q29 0 47 -19.5t18 -48.5t-18 -47.5t-47 -18.5q-94 0 -152.5 28t-93.5 86t-51 147.5 t-25 214.5q-4 51 -6 130.5t-3 171t1 184.5t8 171q8 129 25.5 219t53.5 146.5t94.5 83t148.5 26.5q29 0 48 -18t19 -47z" />
<glyph unicode=")" horiz-adv-x="665" d="M481 408q-8 -125 -24.5 -214.5t-51 -147.5t-93 -86t-152.5 -28q-29 0 -48.5 18.5t-19.5 47.5t19.5 48.5t48.5 19.5q66 0 101.5 22.5t54 63.5t23.5 98t9 127q6 70 8 173t2 208.5t-2 197t-8 140.5q-10 78 -15 136t-21.5 97t-51.5 58.5t-100 19.5q-29 0 -48.5 19.5 t-19.5 48.5t19.5 47t48.5 18q90 0 148.5 -26.5t94 -83t53 -146.5t25.5 -219q4 -78 6 -171t2 -184.5t-2 -171t-6 -130.5z" />
<glyph unicode="*" horiz-adv-x="1251" d="M1112 643q-14 -25 -41 -32t-49 7h-2l-328 191v-379q0 -29 -19.5 -48.5t-47.5 -19.5q-29 0 -47.5 18.5t-18.5 47.5v2v379l-328 -191q-25 -14 -51 -7t-43 32q-14 25 -6 51.5t33 40.5l328 189l-328 190q-25 14 -32 41t7 51q14 25 41 32t49 -7l330 -191v379q0 29 19.5 48.5 t48.5 19.5t47 -19.5t18 -48.5v-379l328 189q25 14 50.5 7t41.5 -32q14 -23 7 -49.5t-32 -40.5l-327 -190l327 -189q25 -14 32 -41.5t-7 -50.5z" />
<glyph unicode="+" horiz-adv-x="1052" d="M887 741q0 -29 -19.5 -49t-48.5 -20h-225v-223q0 -29 -20.5 -49.5t-49.5 -20.5t-47 20.5t-18 49.5v223h-226q-29 0 -48 20.5t-19 48.5q0 29 18.5 47.5t46.5 18.5h228v227q0 29 18.5 47.5t46.5 18.5q29 0 49.5 -19.5t20.5 -48.5v-225h225q29 0 48.5 -18.5t19.5 -47.5z" />
<glyph unicode="," horiz-adv-x="778" d="M594 193q0 -111 -6 -160q-4 -29 -8 -47q-27 -86 -76 -135.5t-76 -67.5q-57 -39 -96 0q-23 20 -23 47t21 49q23 23 60.5 50.5t60.5 70.5q-14 -4 -28.5 -9t-33.5 -5q-43 0 -80 16t-64.5 44t-44 66t-16.5 81q0 86 59.5 145t145.5 59q43 0 80 -16t64.5 -44t44 -64.5 t16.5 -79.5z" />
<glyph unicode="-" d="M905 741q0 -29 -19.5 -49t-47.5 -20h-607q-29 0 -47 20.5t-18 48.5q0 29 18.5 47.5t46.5 18.5h607q29 0 48 -18.5t19 -47.5z" />
<glyph unicode="." horiz-adv-x="778" d="M594 193q0 -43 -16.5 -81t-44 -66t-64.5 -44t-80 -16t-80 16t-64.5 44t-44 66t-16.5 81q0 86 59.5 145t145.5 59q43 0 80 -16t64.5 -44t44 -64.5t16.5 -79.5z" />
<glyph unicode="/" horiz-adv-x="915" d="M211 35q-12 -25 -36.5 -34t-51.5 1q-25 10 -36 37t1 51l655 1352q12 25 38 35t50 0q29 -12 39.5 -38t-2.5 -50z" />
<glyph unicode="0" horiz-adv-x="1142" d="M995 463q-18 -252 -126.5 -364.5t-297.5 -112.5q-188 0 -297.5 113.5t-126.5 363.5q-8 104 -9 245.5t9 301.5q8 129 42 219t88.5 147.5t129 84t164.5 26.5t165 -26.5t129.5 -84t88 -147.5t41.5 -219q10 -160 9 -301.5t-9 -245.5zM860 432q6 70 8 156t2 171t-2 158.5 t-8 122.5q-16 156 -85.5 234t-203.5 78q-133 0 -203.5 -78t-86.5 -234q-6 -49 -8.5 -122.5t-2.5 -158.5t2 -171t9 -156q10 -141 83.5 -227t206.5 -86t206 86t83 227z" />
<glyph unicode="1" horiz-adv-x="784" d="M563 61q0 -29 -19.5 -48t-47.5 -19q-29 0 -48.5 19.5t-19.5 47.5v1215q-35 -45 -89 -73.5t-93 -41.5q-25 -8 -49.5 -5t-34.5 20q-18 27 -13 54t27 46q6 4 25 12l41 19q23 10 46 22t40 25q43 35 66.5 67.5t33.5 40.5q12 8 25.5 14.5t42.5 6.5t48 -20.5t19 -49.5v-1352z " />
<glyph unicode="2" horiz-adv-x="1130" d="M1020 68q0 -29 -18.5 -48.5t-47.5 -19.5h-731q-29 0 -47 19.5t-18 48.5v69q0 98 28.5 175t112.5 157l408 381l65 61q27 25 43 51.5t24.5 60.5t8.5 87q0 68 -20.5 115t-58.5 74.5t-89 40t-113 12.5q-129 0 -209 -95q-47 -53 -77 -147q-25 -80 -91 -63q-20 4 -33.5 25.5 t-9.5 51.5q2 23 11.5 52.5t24 60.5t31.5 59.5t38 51.5q25 27 53.5 51t65.5 43.5t85 32t111 12.5q195 0 307.5 -96.5t112.5 -280.5q0 -57 -8 -99t-30.5 -82t-61.5 -82t-101 -99l-346 -320q-49 -45 -77.5 -77t-44 -62.5t-19.5 -65.5t-4 -88h659q29 0 47.5 -19t18.5 -48z" />
<glyph unicode="3" horiz-adv-x="1038" d="M911 440q-23 -98 -77 -170.5t-129 -128.5q-104 -78 -231.5 -116.5t-297.5 -38.5q-29 0 -47 19.5t-18 47.5q0 29 19.5 47.5t47.5 20.5q147 6 259 39t198 102q55 45 96 103.5t55 126.5q10 45 12.5 90t-6 86t-26.5 74.5t-51 56.5q-33 20 -69 29.5t-69.5 11.5t-61.5 -2 t-40 -7q-16 -4 -33.5 -9t-34 -5t-29.5 6t-22 23q-16 33 -6 54.5t33 49.5l319 389h-514q-29 0 -48 19.5t-19 48.5t19.5 48.5t47.5 19.5h631q29 0 50.5 -18.5t21.5 -49.5q0 -25 -7 -39t-18 -29l-295 -358q51 4 119 -14.5t139 -77.5q43 -37 67 -91.5t32 -114.5t2.5 -124 t-19.5 -119z" />
<glyph unicode="4" horiz-adv-x="1148" d="M1038 432q0 -29 -20.5 -49.5t-48.5 -20.5h-133v-303q0 -27 -19.5 -46t-48.5 -19t-48.5 19.5t-19.5 47.5v301h-485q-29 0 -48.5 20.5t-19.5 49.5v129q0 68 6.5 116t16.5 84t24.5 65.5t32.5 62.5l36 65l59 108l70 126l70 122l54 95q23 39 29 47q18 23 44.5 29t49.5 -11 q25 -16 29 -42.5t-11 -49.5l-26 -45l-42 -72l-52 -92l-56 -98l-141 -252l-24 -44q-11 -22 -18 -46t-11 -57t-4 -78v-96h417v501q0 29 19.5 48.5t48.5 19.5t48.5 -19.5t19.5 -48.5v-501h133q29 0 49 -18.5t20 -47.5z" />
<glyph unicode="5" horiz-adv-x="1091" d="M963 451q-31 -113 -89.5 -179.5t-132.5 -121.5q-104 -78 -231 -117t-297 -39q-29 0 -47.5 18.5t-18.5 46.5q0 29 19.5 47.5t48.5 20.5q147 6 259 39t198 102q55 45 102 103.5t62 124.5q18 90 -0.5 172t-83.5 129q-86 59 -200 48t-249 -100q-16 -10 -34.5 -23t-43.5 -13 q-27 0 -48 19.5t-21 47.5v631q0 29 20.5 48.5t48.5 19.5h633q29 0 49.5 -19.5t20.5 -48.5t-20.5 -48.5t-49.5 -19.5h-569v-448q78 47 157.5 67.5t155.5 16.5t142.5 -29.5t115.5 -68.5q45 -39 73 -90.5t39 -107.5t8 -114.5t-17 -113.5z" />
<glyph unicode="6" horiz-adv-x="1175" d="M1047 481q0 -123 -35 -215t-95.5 -154.5t-142.5 -94t-176 -31.5q-96 0 -178 30.5t-142.5 92t-95.5 154.5t-35 218q0 158 10.5 260.5t26.5 192.5q10 55 25.5 103t37 94.5t52.5 90.5t72 91q66 76 182.5 122t280.5 46q29 0 48 -18.5t19 -47.5t-19.5 -48t-47.5 -21 q-141 -6 -234.5 -48.5t-144.5 -103.5q-47 -59 -90 -139t-43 -183q68 47 126 69t150 22q94 0 176 -28t142.5 -87.5t95.5 -150.5t35 -216zM911 512q0 72 -23.5 130t-65.5 99t-99 63.5t-125 22.5t-125 -22.5t-99 -63.5t-66.5 -99t-24.5 -130v-78q0 -72 24.5 -129t66.5 -98 t99 -63.5t125 -22.5t125 22.5t99 63.5t65.5 98t23.5 129v78z" />
<glyph unicode="7" horiz-adv-x="1050" d="M958 1298q0 -59 -9 -109t-27.5 -101.5t-44.5 -108.5l-60 -127l-78 -159q-41 -85 -76.5 -171t-60 -170t-24.5 -157v-136q0 -29 -19.5 -47t-48.5 -18t-48.5 18.5t-19.5 46.5v80q0 68 14.5 145.5t37 153.5t52 145.5t60.5 125.5q37 68 76 147.5t70.5 155t51 139t19.5 100.5 v88h-551l-20 -163q-4 -39 -25.5 -52.5t-40.5 -13.5q-29 0 -49 18.5t-18 47.5l18 231q2 29 21.5 48.5t48.5 19.5h684q29 0 48 -19.5t19 -48.5v-109z" />
<glyph unicode="8" horiz-adv-x="1173" d="M1020 397q0 -78 -26.5 -152.5t-80 -132t-137.5 -92t-196 -34.5q-113 0 -195 34.5t-136 92t-81 132t-27 152.5v60q0 104 48.5 199.5t146.5 152.5q-70 47 -108 127t-38 176q0 82 27 150.5t78 119t122.5 78t162.5 27.5q90 0 162.5 -27.5t122.5 -78t78 -119t28 -150.5 q0 -96 -38 -176t-108 -127q100 -57 147.5 -152.5t47.5 -199.5v-60zM836 1120q0 123 -74 182.5t-182 59.5q-106 0 -181 -59.5t-75 -182.5q0 -61 20.5 -109t55 -82t80.5 -51.5t100 -17.5q53 0 100 17.5t82 51.5t54.5 82t19.5 109zM887 463q0 49 -17.5 99t-55.5 89t-96.5 63.5 t-137.5 24.5q-80 0 -137.5 -24.5t-94.5 -63.5t-55.5 -89t-18.5 -99v-66q0 -49 18.5 -99t55.5 -90t94.5 -64.5t137.5 -24.5t138 24.5t96 64.5t55.5 90t17.5 99v66z" />
<glyph unicode="9" horiz-adv-x="1175" d="M1028 991q0 -158 -9 -260t-26 -192q-23 -111 -63.5 -198t-124.5 -181q-66 -72 -181.5 -123t-281.5 -51q-29 0 -47.5 18.5t-18.5 46.5q0 29 18.5 48.5t47.5 21.5q141 6 233.5 49t145.5 109q25 29 48.5 63.5t42.5 74.5t31.5 86t12.5 97q-33 -25 -62.5 -42t-62.5 -28.5 t-69.5 -15.5t-81.5 -4q-96 0 -178.5 27.5t-142.5 87t-95 149.5t-35 217q0 123 35 215t95 154.5t142 94.5t179 32q94 0 176 -31t142 -92t95 -154.5t35 -218.5zM893 1038q0 70 -23.5 128.5t-65.5 99.5t-99.5 63.5t-124.5 22.5q-68 0 -125.5 -22.5t-99.5 -63.5t-66.5 -99.5 t-24.5 -128.5v-77q0 -72 24.5 -130.5t66.5 -99.5t99.5 -63.5t125.5 -22.5t125 22.5t99 63.5t65.5 99.5t23.5 130.5v77z" />
<glyph unicode=":" horiz-adv-x="778" d="M594 934q0 -43 -16.5 -80t-44 -64.5t-64.5 -44t-80 -16.5q-86 0 -145.5 59.5t-59.5 145.5t59.5 145.5t145.5 59.5q43 0 80 -16.5t64.5 -44t44 -64.5t16.5 -80zM594 193q0 -43 -16.5 -81t-44 -66t-64.5 -44t-80 -16t-80 16t-64.5 44t-44 66t-16.5 81q0 86 59.5 145 t145.5 59q43 0 80 -16t64.5 -44t44 -64.5t16.5 -79.5z" />
<glyph unicode=";" horiz-adv-x="778" d="M594 934q0 -43 -16.5 -80t-44 -64.5t-64.5 -44t-80 -16.5q-86 0 -145.5 59.5t-59.5 145.5t59.5 145.5t145.5 59.5q43 0 80 -16.5t64.5 -44t44 -64.5t16.5 -80zM594 193q0 -111 -6 -160q-4 -29 -8 -47q-27 -86 -76 -135.5t-76 -67.5q-57 -39 -96 0q-23 20 -23 47t21 49 q23 23 60.5 50.5t60.5 70.5q-14 -4 -28.5 -9t-33.5 -5q-43 0 -80 16t-64.5 44t-44 66t-16.5 81q0 86 59.5 145t145.5 59q43 0 80 -16t64.5 -44t44 -64.5t16.5 -79.5z" />
<glyph unicode="&#x3c;" horiz-adv-x="872" d="M743 2q-20 -18 -46.5 -17t-47.5 19l-499 498q-20 20 -20.5 48t20.5 48l499 498q20 18 47 20t47 -18t20.5 -48t-20.5 -49l-452 -450l452 -453q20 -20 20 -48t-20 -48z" />
<glyph unicode="=" d="M905 879q0 -29 -19.5 -48.5t-47.5 -19.5h-607q-29 0 -47 19.5t-18 48.5t18.5 47t46.5 18h607q29 0 48 -18t19 -47zM905 596q0 -29 -19.5 -48.5t-47.5 -19.5h-607q-29 0 -47 19.5t-18 48.5t18.5 48.5t46.5 19.5h607q29 0 48 -19.5t19 -48.5z" />
<glyph unicode="&#x3e;" horiz-adv-x="872" d="M225 4q-20 -20 -46.5 -20t-47.5 18q-20 20 -20 48t20 48l451 453l-451 450q-20 20 -20 48t20 49q20 20 47 19t47 -21l500 -498q20 -20 20 -48t-20 -48z" />
<glyph unicode="?" horiz-adv-x="1030" d="M901 1128q0 -78 -17.5 -130t-45 -89t-63.5 -63.5t-73 -48.5l-86 -54q-20 -12 -31.5 -18t-17.5 -14.5t-8 -19.5t-2 -36v-49q0 -29 -18.5 -48t-46.5 -19q-29 0 -48.5 19.5t-19.5 47.5v146q0 37 17.5 57t50.5 39q16 10 42.5 24.5t59.5 34.5q27 16 55.5 37t50 46.5t36 57 t14.5 72.5q0 78 -28 124t-68 70.5t-85 32t-77 7.5q-72 0 -132.5 -35t-99.5 -90q-35 -53 -94 -33q-29 10 -35 40t4 58q10 25 37 58.5t72 63.5t106.5 50.5t141.5 20.5q76 0 148.5 -18.5t130.5 -59.5t94 -111t36 -170zM694 193q0 -43 -16 -81t-44 -66t-65 -44t-80 -16t-79.5 16 t-64.5 44t-44 66t-16 81q0 86 59 145t145 59q43 0 80 -16t65 -44t44 -64.5t16 -79.5z" />
<glyph unicode="@" horiz-adv-x="1345" d="M1210 340q18 -20 20.5 -49t-22.5 -45q-23 -12 -44 -12.5t-42 20.5q-25 14 -41 35.5t-26 40.5q-12 23 -21 45q-47 -70 -115.5 -111t-152.5 -41q-184 0 -270 115t-86 352q0 238 96 349.5t268 111.5q84 0 143.5 -36t88.5 -79v76q0 70 -20.5 116t-58.5 73.5t-91.5 40 t-118.5 12.5h-113q-133 0 -223 -79t-100 -220q-6 -74 -8.5 -164t-2.5 -179t2 -167t9 -127q8 -78 37.5 -136.5t75.5 -97.5t104.5 -58.5t124.5 -19.5h45q29 0 47 -18t18 -47t-19.5 -48.5t-47.5 -19.5h-43q-90 0 -173 27t-147.5 83t-105.5 146t-50 220q-10 160 -9 312t9 263 q8 125 49.5 213t105 143.5t145 81t176.5 25.5h90q94 0 173 -18.5t135 -64.5t87 -124t31 -195v-548q0 -47 8 -81t20.5 -57.5t24.5 -37t18 -21.5zM1006 709q0 158 -61.5 232.5t-170.5 74.5q-123 0 -172 -80t-49 -223v-51q0 -72 8 -129.5t31.5 -96.5t64.5 -59.5t109 -20.5 q115 0 177.5 82t62.5 211v60z" />
<glyph unicode="A" horiz-adv-x="1159" d="M1036 76q1 -6 1 -12q0 -22 -12 -40q-15 -24 -42 -28q-8 -2 -16 -2q-19 0 -35 11q-23 15 -27 44l-61 338h-531l-59 -338q-6 -29 -27 -44q-15 -11 -33 -11q-8 0 -16 2q-29 4 -44 28q-11 17 -11 36q0 8 2 16l240 1327q4 29 26.5 50.5t50.5 21.5h273q29 0 52.5 -21.5 t27.5 -50.5zM686 1270q-4 29 -19.5 48t-43.5 19h-86q-29 0 -44.5 -19.5t-19.5 -47.5l-135 -750h483z" />
<glyph unicode="B" horiz-adv-x="1198" d="M1065 410q0 -78 -25.5 -152t-79 -131t-134.5 -92t-191 -35h-383q-29 0 -48.5 19.5t-19.5 48.5v1339q0 29 19.5 48.5t48.5 19.5h375q182 0 280.5 -97.5t98.5 -261.5q0 -98 -40 -177t-114 -120q37 -16 75 -46t68.5 -72t50 -97t19.5 -125v-69zM872 1118q0 123 -68.5 172 t-176.5 49h-305v-462h299q109 0 180 58t71 183zM930 463q0 51 -18.5 100t-57.5 88t-96.5 63.5t-136.5 24.5h-299v-604h284q80 0 140.5 24.5t101.5 63.5t61.5 88t20.5 99v53z" />
<glyph unicode="C" horiz-adv-x="1146" d="M1044 358q-2 -23 -11 -52.5t-23.5 -60t-31.5 -59t-36 -49.5q-27 -31 -57.5 -57.5t-69.5 -48t-90 -33.5t-117 -12q-94 0 -176 25.5t-143.5 80.5t-99 143.5t-46.5 213.5q-4 51 -6 118.5t-2 142t2 155.5t6 159q8 129 48 217t102.5 142.5t143.5 79t171 24.5q86 0 148.5 -25.5 t107.5 -61.5t72 -72l41 -56q16 -25 12 -50.5t-26 -41.5q-25 -18 -54.5 -12t-56.5 38q-23 29 -46.5 55.5t-51 47t-63.5 33t-83 12.5q-133 0 -224 -72t-108 -227q-6 -49 -8 -128t-2 -168t2 -180.5t8 -160.5q10 -141 103.5 -220t228.5 -79q131 0 217 92q29 31 49.5 72t36.5 88 q24 68 71 68q9 0 19 -3q23 -4 35 -25q9 -16 10 -38q-1 -7 -2 -15z" />
<glyph unicode="D" horiz-adv-x="1196" d="M1053 469q-18 -250 -129 -359.5t-299 -109.5h-373q-29 0 -48.5 19.5t-19.5 48.5v1339q0 29 19.5 48.5t48.5 19.5h369q92 0 167.5 -26t131 -81t90 -145t43.5 -219q9 -145 9 -271v-24q-1 -136 -9 -240zM918 436q6 72 8 156t2 166t-2 154.5t-8 121.5q-33 305 -297 305h-302 v-1204h306q133 0 208 80t85 221z" />
<glyph unicode="E" horiz-adv-x="1144" d="M1022 68q0 -29 -18.5 -48.5t-47.5 -19.5h-704q-29 0 -48.5 19.5t-19.5 48.5v1339q0 29 19.5 48.5t48.5 19.5h686q29 0 47.5 -18.5t18.5 -47.5t-18.5 -49.5t-47.5 -20.5h-616v-520h534q29 0 48.5 -18.5t19.5 -46.5q0 -29 -19.5 -48.5t-48.5 -19.5h-534v-551h634 q29 0 47.5 -19t18.5 -48z" />
<glyph unicode="F" horiz-adv-x="1134" d="M1022 1409q0 -29 -18.5 -49.5t-47.5 -20.5h-634v-518h532q29 0 47.5 -18.5t18.5 -46.5q0 -29 -18.5 -49.5t-47.5 -20.5h-532v-627q0 -27 -20.5 -46t-49.5 -19t-48.5 19.5t-19.5 47.5v1350q0 18 19.5 41t48.5 23h704q29 0 47.5 -18.5t18.5 -47.5z" />
<glyph unicode="G" horiz-adv-x="1191" d="M1049 469q0 -129 -35 -221t-95.5 -150.5t-142.5 -85t-176 -26.5t-174 26.5t-139.5 84t-97 147.5t-46.5 215q-8 104 -9 253v27q0 136 9 281q8 129 47 218t99.5 144.5t140.5 80t170 24.5q86 0 151.5 -25.5t111.5 -59.5t74 -70t42 -56q16 -25 11 -50.5t-27 -41.5 q-25 -18 -53.5 -12t-55.5 38q-47 59 -104.5 101.5t-149.5 42.5q-133 0 -220 -74t-104 -229q-6 -49 -8 -125t-2 -163t2 -175t8 -160q10 -141 100.5 -225t223.5 -84q68 0 125 24.5t99 66.5t66.5 100.5t24.5 125.5v246h-329q-29 0 -48.5 19.5t-19.5 48.5t19.5 47t48.5 18h395 q29 0 48.5 -18.5t19.5 -46.5v-281z" />
<glyph unicode="H" horiz-adv-x="1214" d="M1030 59q0 -29 -18.5 -47t-46.5 -18q-29 0 -49.5 18.5t-20.5 46.5v613h-576v-613q0 -29 -19 -47t-48 -18t-48.5 18.5t-19.5 46.5v1348q0 29 19.5 48.5t48.5 19.5t48 -19.5t19 -48.5v-600h576v600q0 29 20.5 48.5t49.5 19.5t47 -19.5t18 -48.5v-1348z" />
<glyph unicode="I" horiz-adv-x="839" d="M707 68q0 -29 -19.5 -48.5t-48.5 -19.5h-436q-29 0 -49.5 19.5t-20.5 48.5t19.5 48t48.5 19h153v1204h-143q-29 0 -48.5 20.5t-19.5 49.5t18.5 47.5t47.5 18.5h422q29 0 48 -18.5t19 -47.5t-19.5 -49.5t-47.5 -20.5h-144v-1204h154q29 0 47.5 -19t18.5 -48z" />
<glyph unicode="J" horiz-adv-x="835" d="M795 1407q0 -29 -18.5 -47.5t-47.5 -18.5h-143v-944q0 -78 -28 -152.5t-83 -132t-140 -92t-198 -34.5h-28q-29 0 -48.5 19.5t-19.5 47.5q0 29 19.5 47.5t48.5 18.5h28q80 0 139.5 24.5t98.5 64.5t58.5 90t19.5 99v944h-152q-29 0 -48.5 19.5t-19.5 48.5t19.5 47.5 t48.5 18.5h426q29 0 48.5 -19.5t19.5 -48.5z" />
<glyph unicode="K" horiz-adv-x="1124" d="M1012 96q11 -16 11 -33q0 -8 -2 -16q-7 -27 -30 -43q-16 -11 -33 -11q-8 0 -16 2q-27 7 -43 30l-424 667l-76 -71l-80 -78v-484q0 -29 -19 -47t-48 -18t-48.5 18.5t-19.5 46.5v1348q0 29 19.5 48.5t48.5 19.5t48 -19.5t19 -48.5v-680l537 530v150q0 29 18.5 48.5 t47.5 19.5t47 -19.5t18 -48.5v-154q0 -29 -10 -51t-53 -65l-351 -349z" />
<glyph unicode="L" horiz-adv-x="1003" d="M932 66q0 -29 -19.5 -47.5t-48.5 -18.5h-612q-29 0 -48.5 18.5t-19.5 47.5v1341q0 29 19.5 48.5t48.5 19.5t48 -19.5t19 -48.5v-1274h545q29 0 48.5 -19t19.5 -48z" />
<glyph unicode="M" horiz-adv-x="1347" d="M1163 61q0 -29 -19.5 -48t-47.5 -19q-29 0 -47.5 18.5t-18.5 46.5v1031l-254 -529q-37 -78 -102 -78q-35 0 -58.5 20.5t-42.5 57.5l-254 529v-1031q0 -29 -19 -47t-48 -18t-48.5 19.5t-19.5 47.5v1346q0 29 19.5 48.5t48.5 19.5q25 0 42 -12.5t34 -49.5l346 -739l346 739 q16 37 32.5 49.5t43.5 12.5q29 0 48 -19.5t19 -48.5v-1346z" />
<glyph unicode="N" horiz-adv-x="1212" d="M1028 59q0 -29 -17.5 -45t-45.5 -20q-4 0 -9 -1q-42 0 -63 38l-574 1091v-1063q0 -29 -19 -47t-48 -18t-48.5 18.5t-19.5 46.5v1348q0 29 19.5 48.5t48.5 19.5q47 0 67 -39l574 -1096v1067q0 29 20.5 48.5t49.5 19.5t47 -19.5t18 -48.5v-1348z" />
<glyph unicode="O" horiz-adv-x="1196" d="M1053 461q-8 -125 -45 -214t-97.5 -147.5t-139.5 -86t-173 -27.5t-173 27.5t-139.5 86t-97 147.5t-45.5 214q-8 104 -9 248v26q0 131 9 273q8 129 46 220t98.5 148.5t140.5 84t170 26.5t170 -26.5t140.5 -84t98 -148.5t46.5 -220q9 -141 9 -273v-26q-1 -144 -9 -248z M920 430q4 72 7 158t3 170t-2 158.5t-8 123.5q-16 156 -101.5 235t-220.5 79q-133 0 -219 -79t-103 -235q-6 -49 -8 -123.5t-2 -158.5t2 -170t8 -158q4 -70 31 -127t69 -98t99 -63.5t123 -22.5q135 0 223.5 85t98.5 226z" />
<glyph unicode="P" horiz-adv-x="1095" d="M1014 1077q0 -78 -21.5 -152.5t-70 -132t-127 -92t-191.5 -34.5h-285v-607q0 -29 -19 -47t-48 -18t-48.5 18.5t-19.5 46.5v1348q0 29 19.5 48.5t48.5 19.5h346q113 0 192.5 -33t129 -88.5t72 -127t22.5 -149.5zM879 1077q0 49 -13.5 96.5t-46.5 84t-86 59t-135 22.5h-276 v-538h282q80 0 133.5 24.5t85 63.5t44 89t12.5 99z" />
<glyph unicode="Q" horiz-adv-x="1222" d="M1069 88q4 -14 4 -27q0 -14 -5 -25q-9 -22 -30 -30q-13 -5 -25 -5q-40 0 -73 56l-12 22l-15 25q-59 -61 -139 -89.5t-176 -28.5q-94 0 -173 27.5t-138.5 86t-97 147.5t-46.5 214q-8 104 -9 247v26q0 131 9 274q8 129 46 219t98.5 147.5t140.5 84t170 26.5t169 -26.5 t139.5 -84t99 -147.5t47.5 -219q9 -131 8 -253v-47q-2 -142 -8 -247q-4 -66 -17.5 -121t-34.5 -102q25 -45 44.5 -86t23.5 -64zM920 430q6 70 8 157t2 171t-2 158.5t-8 123.5q-18 154 -103.5 233t-218.5 79t-219 -79t-103 -233q-6 -47 -8 -118.5t-2 -152.5t2 -165t6 -153 q125 102 308 102q70 0 123 -15.5t92 -39t66.5 -53t49.5 -58.5l5 22q2 11 2 21zM842 231q-33 49 -61.5 84t-59.5 56.5t-64.5 32t-74.5 10.5q-84 0 -154 -32t-115 -91q41 -80 115 -126t170 -46q76 0 138.5 29.5t107.5 82.5h-2z" />
<glyph unicode="R" horiz-adv-x="1173" d="M1040 94q10 -16 10 -33q0 -8 -1 -16q-6 -27 -29 -41q-16 -11 -34 -11q-9 0 -17 3q-27 8 -41 31l-387 641h-222v-609q0 -29 -19 -47t-48 -18t-48.5 18.5t-19.5 46.5v1348q0 29 19.5 48.5t48.5 19.5h346q113 0 192.5 -33t129 -87.5t72 -126t22.5 -149.5q0 -70 -17.5 -137.5 t-55.5 -122.5t-99.5 -94t-149.5 -51zM879 1079q0 49 -13.5 96.5t-46.5 83t-86 57t-135 21.5h-276v-536h282q80 0 133.5 24.5t85 64.5t44 90t12.5 99z" />
<glyph unicode="S" horiz-adv-x="1163" d="M1030 397q0 -84 -26.5 -158.5t-82 -131t-142.5 -89t-208 -32.5q-123 0 -203.5 42t-129 98t-70 114.5t-25.5 91.5q-1 6 0 12q0 23 13 40q16 22 34 26q8 2 16 1q46 0 70 -67q45 -123 119 -172t176 -49q154 0 231 72.5t77 185.5q0 66 -16.5 108.5t-43 72.5t-59.5 48l-64 35 l-290 152q-102 53 -154.5 132t-52.5 201q0 100 35.5 168t93 110t130 60.5t148.5 18.5q78 0 139.5 -20.5t105.5 -50.5t70.5 -63.5t36.5 -58.5q10 -29 4 -58.5t-34 -39.5q-15 -6 -30 -6q-37 0 -64 39q-37 55 -96.5 90t-131.5 35q-35 0 -79 -7.5t-82.5 -32t-66.5 -70.5 t-28 -124q0 -53 28 -106t114 -99l311 -159q31 -16 70.5 -43t74.5 -69t58.5 -102.5t23.5 -144.5z" />
<glyph unicode="T" horiz-adv-x="993" d="M952 1409q0 -29 -18.5 -49.5t-46.5 -20.5h-322v-1280q0 -29 -18.5 -47t-46.5 -18q-29 0 -49.5 18.5t-20.5 46.5v1280h-319q-29 0 -49.5 20.5t-20.5 49.5t19.5 47.5t48.5 18.5h778q29 0 47 -18.5t18 -47.5z" />
<glyph unicode="U" horiz-adv-x="1163" d="M999 408q0 -125 -29.5 -207t-85 -130t-132 -67.5t-170.5 -19.5t-171 19.5t-132.5 67.5t-85 130t-29.5 207v999q0 29 18.5 48.5t46.5 19.5q29 0 49.5 -19.5t20.5 -48.5v-1030q0 -143 73.5 -201.5t209.5 -58.5q135 0 208.5 58t73.5 202v1030q0 29 19.5 48.5t48.5 19.5 t48 -19.5t19 -48.5v-999z" />
<glyph unicode="V" horiz-adv-x="1157" d="M795 68q-6 -29 -29 -48.5t-51 -19.5h-271q-29 0 -52 19.5t-27 48.5l-240 1329q-2 9 -2 16q0 19 10 36q14 24 43 30q9 2 17 1q19 0 33 -10q22 -14 28 -43l221 -1222q4 -18 15.5 -43t46.5 -25h84q29 0 44 19.5t21 48.5l217 1222q4 29 28 42q18 10 38 11q6 0 12 -1 q29 -6 43 -29q11 -18 11 -39q0 -6 -1 -12z" />
<glyph unicode="W" horiz-adv-x="1511" d="M1274 74q-4 -29 -25.5 -51.5t-50.5 -22.5h-258q-29 0 -52.5 22.5t-27.5 51.5l-104 663l-105 -663q-4 -29 -26.5 -51.5t-51.5 -22.5h-258q-29 0 -51 22.5t-26 51.5l-125 1327q-1 6 -1 11q0 22 13 40q16 23 43 27q6 1 12 1q22 0 39 -13q23 -15 27 -44l114 -1226 q4 -23 12.5 -40.5t43.5 -17.5h63q37 0 46.5 14.5t13.5 43.5l139 864q10 66 78 65q68 0 78 -65l139 -864q4 -29 14 -43.5t45 -14.5h64q37 0 46 16.5t11 41.5l115 1226q4 29 25 44q17 12 39 13q6 0 11 -1q29 -4 45 -27q12 -18 12 -39q0 -6 -1 -12z" />
<glyph unicode="X" horiz-adv-x="1017" d="M899 90q7 -15 7 -29q0 -12 -5 -24q-10 -27 -37 -37q-14 -6 -27 -6q-12 0 -24 5q-25 11 -37 36l-270 551l-264 -549q-12 -27 -37 -37q-12 -5 -25 -5t-26 5q-27 12 -37 38q-5 12 -5 23q0 14 7 29l313 651l-313 648q-6 14 -6 27q0 11 4 23q8 26 37 38q12 5 24.5 5t25.5 -5 q26 -10 38 -35l264 -549l268 549q12 25 38 35q13 5 25.5 5t24.5 -5q27 -12 36 -38q4 -11 4 -22q0 -14 -7 -28l-313 -648z" />
<glyph unicode="Y" horiz-adv-x="1075" d="M506 66q-23 -51 -55.5 -58.5t-61.5 -7.5h-117q-29 0 -48 18.5t-19 47.5t19.5 48t47.5 19h111l170 404l-422 843q-9 15 -9 31q0 10 4 21q9 27 34 41q15 9 30 8q10 0 20 -3q26 -9 40 -36l371 -744l307 744q12 31 39 36q8 2 15 1q18 0 36 -9q27 -12 34 -38q3 -11 3 -22 q0 -15 -6 -30z" />
<glyph unicode="Z" horiz-adv-x="1173" d="M989 66q0 -29 -20.5 -47.5t-48.5 -18.5h-699q-29 0 -48 18.5t-19 47.5v145q0 47 11 79t46 79l623 841v129h-521l-20 -163q-4 -41 -24.5 -54.5t-41.5 -13.5q-29 0 -48 19.5t-19 48.5l20 231q0 29 19.5 48.5t48.5 19.5h651q14 0 27 -7q43 -16 43 -61v-164 q0 -45 -11.5 -77.5t-46.5 -80.5l-622 -841v-111l565 2l23 162q6 41 26.5 54.5t38.5 13.5q29 0 48.5 -19.5t19.5 -48.5z" />
<glyph unicode="[" horiz-adv-x="585" d="M530 0q0 -29 -19 -48.5t-48 -19.5l-230 21q-29 0 -48 19.5t-19 47.5v1430q0 29 19.5 48.5t47.5 19.5l230 20q29 0 48 -19.5t19 -48.5q0 -18 -13 -39.5t-54 -25.5l-162 -21v-1298l162 -20q41 -4 54 -26t13 -40z" />
<glyph unicode="\" horiz-adv-x="942" d="M877 86q12 -23 0.5 -50.5t-35.5 -37.5q-27 -10 -52.5 -1t-37.5 34l-658 1358q-12 25 -2 50t37 38q25 10 50.5 -0.5t37.5 -34.5z" />
<glyph unicode="]" horiz-adv-x="585" d="M401 20q0 -29 -19.5 -48t-47.5 -19l-230 -21q-29 0 -48 19.5t-19 48.5q0 18 13 39.5t54 26.5l164 20v1298l-164 21q-41 4 -54 25.5t-13 39.5q0 29 19.5 48.5t47.5 19.5l230 -20q29 0 48 -19.5t19 -48.5v-1430z" />
<glyph unicode="^" horiz-adv-x="1007" d="M805 932q-20 -20 -48 -20.5t-48 20.5l-205 203l-203 -203q-23 -23 -49.5 -22t-46.5 22q-20 20 -20.5 47t20.5 47l252 252q18 20 47 20q27 0 47 -20l254 -252q18 -18 18 -46t-18 -48z" />
<glyph unicode="_" horiz-adv-x="1222" d="M1057 -301q0 -29 -19.5 -48.5t-48.5 -19.5h-758q-29 0 -47 19.5t-18 48.5t18.5 48.5t46.5 19.5h758q29 0 48.5 -19.5t19.5 -48.5z" />
<glyph unicode="`" horiz-adv-x="1036" d="M664 1335q-20 -20 -48 -21t-49 19l-250 252q-20 23 -20 49.5t20 46.5q18 20 45 20.5t48 -20.5l254 -254q20 -20 20 -47t-20 -45z" />
<glyph unicode="a" horiz-adv-x="1175" d="M1073 111q20 -23 20.5 -50.5t-20.5 -46.5q-20 -20 -47 -20t-47 22q-20 16 -36.5 40t-29.5 46q-14 25 -26 54q-59 -76 -145.5 -123t-186.5 -47q-92 0 -171 31.5t-137.5 92t-91 149.5t-32.5 204v201q0 117 33.5 203.5t93 146t139.5 89.5t172 30q90 0 163 -37t134 -101v60 q0 29 18.5 49t47.5 20t48 -19.5t19 -47.5v-731q0 -47 10.5 -84t24.5 -63.5t28.5 -43t20.5 -24.5h-2zM858 678q0 143 -81 231t-216 88t-217 -80.5t-82 -222.5v-262q0 -143 79 -227t214 -84t219 84t84 227v246z" />
<glyph unicode="b" horiz-adv-x="1142" d="M1020 463q0 -115 -33 -204t-89 -149.5t-134 -92t-168 -31.5q-53 0 -98 14t-81 36.5t-65.5 51.5t-52.5 57v-84q0 -29 -19.5 -48t-48.5 -19t-48 19.5t-19 47.5v1346q0 29 19.5 48.5t47.5 19.5q29 0 48.5 -19.5t19.5 -48.5v-418q57 72 128 111t169 39q90 0 168 -31 t134 -90.5t89 -147.5t33 -202v-205zM881 698q0 143 -75 225.5t-210 82.5q-68 0 -122 -26t-93 -70t-60.5 -105.5t-21.5 -132.5v-217q0 -72 25.5 -132.5t67.5 -105.5t95.5 -70.5t108.5 -25.5q135 0 210 84t75 227v266z" />
<glyph unicode="c" horiz-adv-x="991" d="M868 119q-35 -51 -87 -78t-99 -39q-55 -14 -117 -16q-92 0 -172 31.5t-140 92t-95 149.5t-35 204v205q0 117 35 205t95 147t140 89t172 30q57 -2 113 -17q47 -12 98 -37.5t92 -72.5q20 -18 20.5 -46t-20.5 -51q-18 -18 -45.5 -18t-48.5 18l-22 22q-16 15 -42 30.5t-62 27 t-83 11.5q-135 0 -218 -82t-83 -226v-266q0 -143 83 -227t218 -84q47 0 83 12t61.5 27.5t41 32t23.5 22.5q20 18 48 18t46 -18q20 -23 20 -49.5t-20 -46.5z" />
<glyph unicode="d" horiz-adv-x="1142" d="M979 61q0 -29 -18.5 -48t-47.5 -19t-47 19.5t-18 47.5v84q-25 -29 -54.5 -57.5t-66.5 -51t-81 -36.5t-97 -14q-92 0 -170 31.5t-134.5 92t-89 149.5t-32.5 204v205q0 115 32.5 202.5t89 147t134.5 90.5t170 31q98 0 168.5 -39t130.5 -111v422q0 29 18.5 48.5t46.5 19.5 q29 0 47.5 -19.5t18.5 -48.5v-1350zM848 672q0 72 -21.5 133t-61.5 105t-94.5 70t-121.5 26q-135 0 -210 -82t-75 -226v-266q0 -143 75 -227t210 -84q53 0 106.5 25.5t96.5 70.5t69.5 105.5t26.5 132.5v217z" />
<glyph unicode="e" horiz-adv-x="1081" d="M989 553q0 -29 -18.5 -48.5t-46.5 -19.5h-660q0 -158 84 -257t258 -99h185q29 0 47 -19.5t18 -48.5t-18.5 -48t-46.5 -19h-197q-106 0 -193.5 34.5t-149 100.5t-95 161t-33.5 218v139q0 117 33.5 207t93 153.5t139.5 96.5t172 33t170 -33t135.5 -96.5t90 -153.5 t32.5 -207v-94zM848 678q0 143 -76 234.5t-211 91.5q-68 0 -122 -25t-93 -68t-60.5 -102t-21.5 -131v-60h584v60z" />
<glyph unicode="f" horiz-adv-x="716" d="M666 1059q0 -29 -19.5 -49.5t-48.5 -20.5h-201v-928q0 -29 -18.5 -48t-46.5 -19q-29 0 -49.5 19.5t-20.5 47.5v928h-92q-29 0 -48.5 20.5t-19.5 49.5t18.5 47t47.5 18h94q0 104 42 194.5t136 145.5q28 16 52 16h8q27 -3 41 -26q12 -20 10 -47t-25 -41 q-39 -25 -64.5 -47.5t-39.5 -49t-19.5 -61t-5.5 -84.5h201q29 0 48.5 -18t19.5 -47z" />
<glyph unicode="g" horiz-adv-x="1110" d="M967 119q0 -242 -116 -365t-310 -123h-146q-29 0 -47 19.5t-18 48.5t19.5 48.5t47.5 19.5h144q162 0 226 94t64 252q-55 -53 -125.5 -90t-156.5 -37q-92 0 -170 31.5t-134.5 92t-89 149.5t-32.5 204v205q0 115 32.5 202.5t89 147t134.5 90.5t170 31q53 0 95 -13.5t76 -35 t61.5 -49t49.5 -56.5v76q0 29 19.5 48t48.5 19t48.5 -19t19.5 -48v-848v-94zM831 676q0 70 -23.5 130t-63 105t-91 70t-104.5 25q-135 0 -212 -79t-77 -225v-266q0 -143 77 -229t212 -86t208.5 84t73.5 227v244z" />
<glyph unicode="h" horiz-adv-x="1120" d="M977 61q0 -27 -19.5 -47t-48.5 -20t-48 20.5t-19 46.5v617q0 326 -277 326q-70 0 -120 -27t-82.5 -74t-48 -110.5t-15.5 -139.5v-594q0 -27 -19.5 -46t-48.5 -19t-48 19.5t-19 47.5v1346q0 29 19.5 48.5t47.5 19.5q29 0 48.5 -19.5t19.5 -48.5v-416q45 66 114.5 106 t155.5 40q100 0 176 -27t127.5 -85t78 -151.5t26.5 -226.5v-586z" />
<glyph unicode="i" horiz-adv-x="786" d="M565 1516q0 -43 -16.5 -80t-44 -65t-64.5 -44t-80 -16q-86 0 -145 59.5t-59 145.5t59 145t145 59q43 0 80 -16t64.5 -44t44 -64.5t16.5 -79.5zM684 68q0 -29 -19.5 -48.5t-48.5 -19.5h-426q-29 0 -48 19.5t-19 48.5t18.5 48t46.5 19h148v852h-146q-29 0 -48 20.5 t-19 49.5t18.5 47t46.5 18h213q29 0 50.5 -22.5t21.5 -50.5v-52v-862h143q29 0 48.5 -19t19.5 -48z" />
<glyph unicode="j" horiz-adv-x="786" d="M633 1518q0 -43 -16.5 -80t-44 -64.5t-64.5 -44t-80 -16.5q-86 0 -145.5 59.5t-59.5 145.5t59.5 145t145.5 59q43 0 80 -16t64.5 -44t44 -64.5t16.5 -79.5zM565 45q0 -78 -27.5 -152.5t-84 -133t-140.5 -93.5t-196 -35h-29q-29 0 -48.5 19.5t-19.5 48.5t18.5 48.5 t47.5 19.5h31q80 0 139 24.5t98 64.5t58.5 89t19.5 100v942h-143q-29 0 -47.5 20.5t-18.5 49.5t18.5 47t47.5 18h209q29 0 48 -18.5t19 -46.5v-1012z" />
<glyph unicode="k" horiz-adv-x="1040" d="M956 100q12 -18 12 -36q0 -7 -1 -14q-6 -26 -31 -42q-23 -14 -50.5 -8t-43.5 29l-310 487l-233 -219v-238q0 -27 -19.5 -46t-48.5 -19t-48 19.5t-19 47.5v1346q0 29 19.5 48.5t47.5 19.5q29 0 48.5 -19.5t19.5 -48.5v-928l483 461v119q0 29 20.5 48t49.5 19t47.5 -19.5 t18.5 -47.5v-127q0 -29 -12.5 -53.5t-53.5 -61.5l-219 -207z" />
<glyph unicode="l" horiz-adv-x="806" d="M705 66q0 -29 -19.5 -47.5t-48.5 -18.5h-426q-29 0 -48.5 18.5t-19.5 47.5t18.5 48t47.5 19h147v1206h-145q-29 0 -48.5 20.5t-19.5 49.5t18.5 47.5t47.5 18.5h215q29 0 48.5 -18.5t19.5 -47.5v-1276h145q29 0 48.5 -19t19.5 -48z" />
<glyph unicode="m" horiz-adv-x="1740" d="M1608 59q0 -29 -20.5 -47t-49.5 -18t-47 19.5t-18 47.5v633q0 154 -56.5 232t-204.5 78q-70 0 -117.5 -27t-77.5 -70t-43 -98t-13 -111v-639q0 -29 -19.5 -47t-48.5 -18t-48.5 19.5t-19.5 47.5v631q0 154 -55 231.5t-203 77.5q-72 0 -124 -27.5t-85.5 -71.5t-51 -99 t-17.5 -113v-629q0 -29 -19.5 -48t-48.5 -19t-48 19.5t-19 47.5v996q0 29 19.5 48t47.5 19q29 0 48.5 -18.5t19.5 -46.5v-70q25 33 52.5 59.5t60 46t73.5 31t92 11.5q135 0 219 -50.5t127 -146.5q20 37 49 73t65 63.5t82 45t103 17.5q106 0 181 -26t122.5 -83t70 -147 t22.5 -219v-605z" />
<glyph unicode="n" horiz-adv-x="1093" d="M961 59q0 -29 -19.5 -47t-48.5 -18t-48.5 19.5t-19.5 47.5v631q0 154 -55 233t-203 79q-72 0 -124 -28t-85.5 -73t-51 -100t-17.5 -113v-629q0 -29 -19.5 -48t-48.5 -19t-48 19.5t-19 47.5v996q0 29 19.5 48t47.5 19q29 0 48.5 -18.5t19.5 -46.5v-70q25 33 52.5 59.5 t60 47t73.5 32t92 11.5q104 0 179 -27t123.5 -83t70 -147t21.5 -220v-603z" />
<glyph unicode="o" horiz-adv-x="1110" d="M997 449q0 -117 -34.5 -203t-95 -144.5t-140.5 -87t-172 -28.5t-172 28.5t-140.5 87t-95 144.5t-34.5 203v219q0 117 34.5 205t95 147t140.5 89t172 30t172 -30t140.5 -89t95 -147.5t34.5 -204.5v-219zM856 698q0 143 -84 224.5t-217 81.5q-135 0 -219 -81t-84 -225v-282 q0 -143 84 -219t219 -76q133 0 217 75.5t84 219.5v282z" />
<glyph unicode="p" horiz-adv-x="1140" d="M1018 446q0 -117 -33 -202.5t-89 -143t-134 -86t-170 -28.5q-86 0 -162 27.5t-131 82.5v-397q0 -29 -19.5 -48.5t-48.5 -19.5t-48 19.5t-19 48.5v1358q0 29 19.5 48t47.5 19q29 0 48.5 -19.5t19.5 -47.5v-64q47 59 115.5 102.5t177.5 43.5q92 0 170 -29t134 -87t89 -144 t33 -203v-230zM874 709q0 141 -74.5 218t-207.5 77q-53 0 -106.5 -24t-94.5 -66t-66.5 -100t-25.5 -130v-268q0 -145 79 -221t214 -76q133 0 207.5 75.5t74.5 221.5v293z" />
<glyph unicode="q" horiz-adv-x="1140" d="M977 -301q0 -29 -20.5 -48.5t-49.5 -19.5t-47 19.5t-18 48.5v399q-55 -55 -131 -83.5t-162 -28.5q-92 0 -170 28.5t-134.5 86t-89 144.5t-32.5 204v229q0 115 32.5 202t89 144t134.5 86t170 29q106 0 176 -42t117 -102v62q0 29 18.5 48t46.5 19q29 0 49.5 -19.5 t20.5 -47.5v-1358zM842 686q0 70 -25.5 129t-67.5 100t-94.5 65t-105.5 24q-135 0 -210 -76t-75 -219v-293q0 -143 75 -220t210 -77q133 0 213 76.5t80 220.5v270z" />
<glyph unicode="r" horiz-adv-x="839" d="M799 1063q0 -29 -18.5 -49.5t-47.5 -20.5h-168q-117 0 -191.5 -97t-74.5 -273v-562q0 -29 -19.5 -48t-48.5 -19t-48 19.5t-19 47.5v998q0 29 19.5 47t47.5 18q29 0 48.5 -18.5t19.5 -46.5v-80q41 66 108.5 107.5t157.5 41.5h168q29 0 47.5 -18t18.5 -47z" />
<glyph unicode="s" horiz-adv-x="991" d="M899 322q0 -70 -22.5 -131.5t-71.5 -106.5t-129 -71.5t-195 -26.5q-68 0 -127 15t-105 37.5t-79 46.5t-47 40q-22 24 -22 50q0 24 20 44t48 20.5t48 -18.5l33 -23q25 -17 61.5 -35t81.5 -31t92 -13q86 0 138.5 18.5t82 47t40 64.5t10.5 70q0 115 -123 152l-307 96 q-37 12 -74 28.5t-67.5 46.5t-49 75t-18.5 112q0 86 36.5 144.5t93 95.5t122 53.5t120.5 16.5q117 0 200 -41t128 -88q20 -20 22.5 -46t-20.5 -49q-18 -20 -47 -20t-49 18q-6 6 -26.5 21.5t-52.5 31t-73 27t-88 11.5q-23 0 -61.5 -5.5t-75.5 -24t-63.5 -56t-26.5 -103.5 q0 -61 33 -85.5t86 -41.5l274 -84q123 -39 186.5 -105t63.5 -177z" />
<glyph unicode="t" horiz-adv-x="747" d="M645 1065q0 -29 -19.5 -47.5t-47.5 -18.5h-201v-675q0 -61 14.5 -100.5t34.5 -64t43 -36.5t39 -23q23 -14 25 -41.5t-11 -46.5q-18 -27 -48 -27q-23 0 -52 15q-78 39 -129 124t-51 200v675h-95q-29 0 -47 18.5t-18 47.5t19.5 48.5t48.5 19.5h92v274q0 29 20.5 48.5 t48.5 19.5q29 0 47.5 -19.5t18.5 -48.5v-274h201q29 0 48 -19.5t19 -48.5z" />
<glyph unicode="u" horiz-adv-x="1095" d="M942 61q0 -29 -19.5 -48t-48.5 -19t-48 19.5t-19 47.5v74q-49 -66 -112.5 -107.5t-166.5 -41.5q-106 0 -181 25.5t-123 83t-69.5 147.5t-21.5 219v596q0 29 19.5 48t48.5 19t48 -19.5t19 -47.5v-627q0 -154 55.5 -232.5t204.5 -78.5q70 0 122 27.5t87 71.5t52.5 99.5 t17.5 112.5v627q0 29 19.5 48t47.5 19q29 0 48.5 -19.5t19.5 -47.5v-996z" />
<glyph unicode="v" horiz-adv-x="997" d="M672 66q-6 -29 -31 -47.5t-53 -18.5h-178q-29 0 -53.5 18.5t-30.5 47.5l-242 976q-2 9 -2 18q0 19 9 35q13 24 42 31q8 2 17 2q18 0 34 -9q25 -13 31 -42l209 -868q8 -35 22.5 -48.5t51.5 -13.5q39 0 52 13.5t21 48.5l213 868q6 29 30 42q16 9 35 9q9 0 17 -2 q29 -8 42 -31q8 -15 9 -31q0 -10 -4 -22z" />
<glyph unicode="w" horiz-adv-x="1396" d="M1184 74q-4 -29 -26.5 -51.5t-51.5 -22.5h-240q-29 0 -50 22.5t-28 51.5l-90 458l-88 -458q-4 -29 -27.5 -51.5t-52.5 -22.5h-239q-29 0 -51.5 22.5t-26.5 51.5l-111 977q-1 6 0 11q0 22 13 40q16 23 45 26q6 1 11 1q22 0 39 -13q22 -16 26 -45l102 -881q4 -29 15.5 -41 t39.5 -12h43q51 0 62 53l133 670q6 33 21.5 51.5t45.5 18.5q33 0 48.5 -18.5t21.5 -51.5l133 -670q10 -53 62 -53h43q29 0 40 12.5t15 40.5l102 881q4 29 26 45q17 13 39 13q5 0 11 -1q29 -4 44 -26q12 -18 12 -40q0 -6 -1 -11z" />
<glyph unicode="x" horiz-adv-x="948" d="M817 98q11 -16 11 -33q0 -9 -3 -18q-8 -27 -30 -41q-16 -10 -34 -9q-9 0 -18 2q-27 7 -41 30l-229 397l-227 -397q-12 -23 -39 -30q-9 -2 -18 -2l-35 9q-23 14 -31 41q-3 10 -3 19q0 16 9 32l266 463l-264 469q-9 16 -9 32q0 9 3 19q8 27 31 41q16 10 33 10q9 0 18 -3 q27 -7 41 -31l225 -396l227 396q14 25 41 31q9 2 18 3q17 0 34 -10q23 -14 29.5 -40.5t-7.5 -51.5l-264 -469z" />
<glyph unicode="y" horiz-adv-x="987" d="M453 -303q-18 -51 -53 -58.5t-64 -7.5h-92q-29 0 -48.5 18.5t-19.5 47.5t19.5 48t48.5 19h94l106 304l-358 976q-5 12 -5 24q0 14 7 28q12 25 41 34q11 3 21 4q16 0 30 -9q23 -13 33 -40l305 -821l295 817q10 29 33 43q16 10 33 10q8 0 16 -1q29 -8 44 -32q9 -14 9 -30 q0 -11 -4 -22z" />
<glyph unicode="z" horiz-adv-x="978" d="M868 68q-2 -29 -20.5 -48.5t-46.5 -19.5h-611q-29 0 -48 19.5t-19 48.5v145q0 33 16 51l549 627q12 16 12 48v48h-417l-11 -82q-4 -41 -26.5 -54t-40.5 -13q-29 0 -49.5 19.5t-18.5 47.5l10 150q2 29 20.5 48t47.5 19h551q29 0 49.5 -19.5t20.5 -47.5v-168q0 -29 -19 -51 l-543 -621q-16 -18 -16 -35v-45h477l6 82q10 39 28.5 53.5t39.5 14.5q29 0 49.5 -19.5t18.5 -48.5z" />
<glyph unicode="{" horiz-adv-x="880" d="M770 -6q0 -27 -18.5 -46.5t-46.5 -19.5q-76 0 -131.5 19.5t-93.5 67.5t-59.5 129t-29.5 204l-8 116.5t-18.5 97.5t-40 66.5t-72.5 24.5q-29 0 -48.5 19.5t-19.5 48.5t19.5 48t48.5 19q47 0 72.5 25t40 67t18.5 97t8 117q16 246 89 349t225 103q29 0 47 -18.5t18 -46.5 q0 -29 -18.5 -47.5t-46.5 -18.5q-68 0 -102 -26.5t-50 -74.5t-22.5 -113.5l-14.5 -143.5q-6 -47 -9 -100.5t-11.5 -101.5t-26.5 -84t-53 -50q35 -14 53 -50t26.5 -84t11.5 -101.5t9 -100.5l14 -139q6 -61 22.5 -102.5t50.5 -63t102 -21.5q29 0 47 -18t18 -47z" />
<glyph unicode="|" horiz-adv-x="585" d="M360 -184q0 -29 -20.5 -48.5t-48.5 -19.5q-29 0 -47.5 18.5t-18.5 47.5v2v1843q0 29 19.5 48t48.5 19t48 -19t19 -48v-1843z" />
<glyph unicode="}" horiz-adv-x="880" d="M696 721q0 -29 -18.5 -48.5t-46.5 -19.5q-47 0 -74 -24.5t-40 -66.5t-17 -97t-8 -117q-8 -123 -30 -204t-61 -129t-94 -67.5t-131 -19.5q-27 0 -46 19.5t-19 46.5q0 29 19.5 47t45.5 18q68 0 102.5 21.5t50 62.5t20.5 102.5t16 139.5q6 47 9 100.5t11 101.5t26.5 84 t53.5 50q-35 14 -53.5 50t-26.5 84t-11 101.5t-9 100.5q-10 78 -15.5 143.5t-21 113.5t-50 74.5t-102.5 26.5q-27 0 -46 18.5t-19 47.5t19.5 47t45.5 18q152 0 225.5 -103.5t90.5 -348.5l8 -116.5t17 -97.5t40 -67t74 -25q29 0 47 -19t18 -48z" />
<glyph unicode="~" horiz-adv-x="1290" d="M1102 836q-35 -76 -81 -111t-96.5 -44t-98.5 0t-83 24l-260 100q-37 14 -64.5 16t-51 -9t-45 -33.5t-48.5 -57.5q-16 -23 -42.5 -27t-49.5 13q-23 16 -25.5 43.5t11.5 52.5q63 117 166.5 138.5t232.5 -28.5l203 -77q35 -14 64.5 -21.5t56.5 -1.5t51.5 30.5t50.5 74.5 q14 25 40 27.5t50 -13.5q23 -14 26 -41.5t-7 -54.5z" />
<glyph unicode="&#xa1;" horiz-adv-x="778" d="M592 932q0 -86 -59.5 -145.5t-145.5 -59.5q-43 0 -81 16.5t-65.5 44t-43 64.5t-15.5 80t15.5 81t43 65.5t65.5 44t81 16.5t80 -16.5t64.5 -44t44 -65.5t16.5 -81zM453 -301q0 -29 -19.5 -49.5t-48.5 -20.5t-47.5 20.5t-18.5 49.5v807q0 29 19.5 47t48.5 18t47.5 -18 t18.5 -47v-807z" />
<glyph unicode="&#xa2;" horiz-adv-x="1007" d="M877 203q18 -20 18 -48t-21 -46q-29 -41 -69.5 -66t-77.5 -39q-45 -16 -90 -24v-105q0 -29 -18.5 -47t-47.5 -18t-48 19t-19 48v103q-80 12 -147.5 50t-119 101.5t-80 149.5t-28.5 190v166q0 104 28.5 189t80 146.5t119 99.5t147.5 50v105q0 29 19.5 48t47.5 19 q29 0 47.5 -19.5t18.5 -47.5v-105q45 -8 88 -24q37 -14 78 -38t71 -61q20 -18 21.5 -45.5t-18.5 -48.5q-20 -20 -47 -20t-50 20l-46 39q-34 29 -97 43v-870q63 16 97 46l46 40q20 20 48.5 20t48.5 -20zM504 987q-106 -23 -170 -108.5t-64 -208.5v-232q0 -123 63.5 -211 t170.5 -110v870z" />
<glyph unicode="&#xa3;" horiz-adv-x="1132" d="M1004 68q0 -29 -19.5 -48.5t-48.5 -19.5h-614q-29 0 -48.5 19.5t-19.5 48.5v923h-74q-29 0 -48 19.5t-19 48.5t19.5 47t47.5 18h74v35q2 59 14 115q10 47 35 99t68 89q23 18 48 20.5t46 -18.5q20 -20 20 -46.5t-18 -49.5q-6 -6 -19.5 -22.5t-26.5 -42t-22.5 -61.5 t-9.5 -83v-35h348q29 0 48.5 -18.5t19.5 -46.5q0 -29 -19.5 -48.5t-48.5 -19.5h-348v-856h547q29 0 48.5 -19t19.5 -48z" />
<glyph unicode="&#xa4;" horiz-adv-x="1296" d="M1155 1266q-20 -20 -47 -20.5t-49 18.5q-6 6 -22.5 19t-42 26.5t-62.5 22.5t-84 9h-105q-90 0 -156.5 -31.5t-109.5 -86t-64.5 -127t-21.5 -154.5h455q29 0 48 -18.5t19 -46.5q0 -29 -19.5 -48.5t-47.5 -19.5h-455v-141h326q29 0 48 -18.5t19 -47.5t-19.5 -48t-47.5 -19 h-326q0 -82 20.5 -155t63.5 -128t109.5 -87t158.5 -32h86q47 0 83 9.5t61.5 22.5t41 26.5t21.5 19.5q23 18 49.5 18t47.5 -20q20 -20 18 -46t-21 -48q-37 -43 -89 -66.5t-99 -34.5q-55 -12 -115 -14h-100q-119 0 -208 42t-147.5 114.5t-87 170t-28.5 208.5h-100 q-29 0 -48.5 19t-19.5 48t19.5 47.5t48.5 18.5h100v141h-100q-29 0 -48.5 19.5t-19.5 48.5t18.5 47t47.5 18h102q0 109 29.5 206t88 170t146.5 115t207 42h123q59 -2 115 -15q47 -10 99 -33.5t89 -66.5q18 -23 20 -48.5t-18 -45.5z" />
<glyph unicode="&#xa5;" horiz-adv-x="1290" d="M1143 913q0 -29 -19.5 -48t-48.5 -19h-205l-157 -314h309q29 0 48.5 -18t19.5 -47t-19.5 -48.5t-48.5 -19.5h-309v-331q0 -29 -18.5 -48.5t-47.5 -19.5t-49 19.5t-20 48.5v331h-314q-29 0 -48 19.5t-19 48.5t19.5 47t47.5 18h314l-156 314h-193q-29 0 -48 19.5t-19 47.5 q0 29 19.5 48.5t47.5 19.5h125l-198 397q-14 27 -5 53.5t33 38.5q25 12 51.5 4t38.5 -34l373 -746l371 746q12 27 37.5 35t50.5 -5q27 -12 35 -38.5t-4 -53.5l-201 -397h139q29 0 48.5 -19.5t19.5 -48.5z" />
<glyph unicode="&#xa6;" horiz-adv-x="466" d="M301 883q0 -29 -19.5 -48.5t-48.5 -19.5t-48 19.5t-19 48.5v524q0 29 19.5 48.5t47.5 19.5q29 0 48.5 -19.5t19.5 -48.5v-524zM301 57q0 -29 -19.5 -47t-48.5 -18t-48 19.5t-19 47.5v523q0 29 19.5 48t47.5 19q29 0 48.5 -18.5t19.5 -46.5v-527z" />
<glyph unicode="&#xa7;" horiz-adv-x="1083" d="M973 463q0 -100 -45 -172t-150 -113q55 -29 96 -82t41 -155q0 -86 -36.5 -144.5t-92 -95.5t-121 -53.5t-122.5 -16.5q-57 2 -115 17q-49 12 -107.5 37.5t-105.5 72.5q-20 20 -21 47t19 48q20 23 47 21.5t49 -19.5q6 -6 26.5 -21.5t52.5 -31t73 -27t88 -11.5 q23 0 61.5 5.5t75.5 25t63.5 57t26.5 103.5q0 61 -31.5 87t-87.5 42l-274 80q-123 35 -188.5 110.5t-65.5 186.5q0 100 47 169.5t152 110.5q-53 29 -94 82.5t-41 155.5q0 86 36.5 144.5t92 95t121 53t122.5 16.5q57 -2 115 -16q49 -12 106.5 -38t106.5 -73q20 -20 20 -47 t-18 -47q-20 -23 -48 -21.5t-48 19.5l-29 21q-20 15 -51 31t-72 27t-88 11q-25 0 -63.5 -5t-75.5 -24.5t-63.5 -57.5t-26.5 -103q0 -61 32.5 -87t88.5 -42l274 -80q248 -72 248 -293zM829 461q0 78 -73.5 128t-204.5 60q-92 6 -147.5 -6t-85 -38.5t-38 -63.5t-8.5 -78 q0 -78 78 -127t209 -60q92 -6 146.5 6.5t82 39t34.5 62.5t7 77z" />
<glyph unicode="&#xa8;" horiz-adv-x="917" d="M950 1610q0 -43 -16 -80t-44 -64.5t-65 -44t-80 -16.5q-86 0 -145 59.5t-59 145.5t59 145.5t145 59.5q43 0 80 -16.5t65 -44.5t44 -64.5t16 -79.5zM379 1610q0 -43 -16.5 -80t-44 -64.5t-64.5 -44t-80 -16.5q-86 0 -145.5 59.5t-59.5 145.5t59.5 145.5t145.5 59.5 q43 0 80 -16.5t64.5 -44.5t44 -64.5t16.5 -79.5z" />
<glyph unicode="&#xa9;" horiz-adv-x="1640" d="M1493 510q0 -115 -38 -209t-103.5 -160.5t-153.5 -103.5t-188 -37h-379q-100 0 -188.5 37t-154 103.5t-103.5 160.5t-38 209v455q0 115 38 209t103.5 160.5t153.5 103.5t189 37h379q100 0 188 -37t153.5 -103.5t103.5 -161t38 -208.5v-455zM1372 997q0 72 -29.5 138.5 t-80 117t-119 80t-146.5 29.5h-354q-78 0 -146.5 -29.5t-118.5 -80t-80 -117t-30 -138.5v-520q0 -72 30 -138.5t80 -116.5t118.5 -79.5t146.5 -29.5h354q78 0 146.5 29.5t119 79.5t80 117t29.5 138v520zM1135 494q39 -35 -2 -93q-10 -12 -33 -35.5t-58.5 -45t-86 -39 t-117.5 -17.5q-111 -2 -182.5 23.5t-113.5 82t-59.5 145.5t-17.5 216t18.5 216t61.5 144.5t114.5 81t178.5 25.5q51 0 104 -14q45 -12 96.5 -41t94.5 -82q20 -20 21 -47t-19 -45q-20 -20 -47 -20.5t-48 18.5l-21 22q-15 16 -41 34.5t-60.5 32t-81.5 13.5q-86 0 -135.5 -21.5 t-74 -61.5t-30.5 -97.5t-6 -126.5v-62q0 -72 8 -128t33.5 -96t74 -61.5t130.5 -21.5q47 0 81.5 13.5t60.5 32t41 34.5l21 23q20 20 47.5 19t47.5 -21z" />
<glyph unicode="&#xaa;" horiz-adv-x="944" d="M797 807q16 -16 17 -41t-19 -35q-16 -10 -34 -11t-34 15q-20 12 -32.5 28.5t-22.5 33.5q-10 18 -17 37q-33 -55 -86 -91t-129 -36q-147 0 -229 96t-82 289t84 288t231 95q66 0 115 -30t72 -65v31q0 23 16.5 39t38.5 16q23 0 38 -15t15 -38v-448q0 -39 7.5 -66t16.5 -45 t18.5 -29.5t15.5 -17.5zM815 524q0 -29 -18.5 -48t-46.5 -19h-535q-29 0 -47 19.5t-18 47.5q0 29 18 48.5t47 19.5h535q29 0 47 -19.5t18 -48.5zM631 1108q0 127 -49.5 192.5t-137.5 65.5q-109 0 -153.5 -63.5t-44.5 -180.5v-57q0 -117 43 -183.5t151 -66.5q45 0 81 19.5 t60.5 53.5t37 80t12.5 97v43z" />
<glyph unicode="&#xab;" horiz-adv-x="1024" d="M926 188q-20 -20 -47 -20t-48 20l-251 254q-20 25 -21 45q0 23 21 48l251 253q20 20 47 20.5t48 -20.5q20 -20 20 -47.5t-20 -48.5l-203 -205l203 -202q20 -20 20 -48.5t-20 -48.5zM528 188q-20 -20 -46.5 -20t-47.5 20l-252 254q-20 25 -20 45q0 23 20 48l252 253 q20 20 47 20.5t47 -20.5q20 -20 20.5 -47.5t-20.5 -48.5l-202 -205l202 -202q20 -20 20 -48.5t-20 -48.5z" />
<glyph unicode="&#xac;" horiz-adv-x="1161" d="M995 182q0 -29 -19.5 -48t-47.5 -19q-29 0 -48.5 19.5t-19.5 47.5v293h-627q-29 0 -48 20.5t-19 49.5t19.5 47t47.5 18h695q29 0 48 -18.5t19 -46.5v-363z" />
<glyph unicode="&#xad;" d="M905 741q0 -29 -19.5 -49t-47.5 -20h-607q-29 0 -47 20.5t-18 48.5q0 29 18.5 47.5t46.5 18.5h607q29 0 48 -18.5t19 -47.5z" />
<glyph unicode="&#xae;" horiz-adv-x="1640" d="M1493 510q0 -115 -38 -209t-103.5 -160.5t-153.5 -103.5t-188 -37h-379q-100 0 -188.5 37t-154 103.5t-103.5 160.5t-38 209v455q0 115 38 209t103.5 160.5t153.5 103.5t189 37h379q100 0 188 -37t153.5 -103.5t103.5 -161t38 -208.5v-455zM1372 997q0 72 -29.5 138.5 t-80 117t-119 80t-146.5 29.5h-354q-78 0 -146.5 -29.5t-118.5 -80t-80 -117t-30 -138.5v-520q0 -72 30 -138.5t80 -116.5t118.5 -79.5t146.5 -29.5h354q78 0 146.5 29.5t119 79.5t80 117t29.5 138v520zM1174 924q0 -68 -18.5 -118t-47.5 -84t-64.5 -53.5t-70.5 -25.5 l139 -276q14 -29 6 -55.5t-33 -37.5q-29 -16 -53 -3.5t-39 38.5l-162 334h-165v-309q0 -29 -19.5 -47.5t-48.5 -18.5q-27 0 -46.5 18.5t-19.5 47.5v524v279q0 29 19.5 47t46.5 18h297q49 0 99 -16.5t90 -50t65 -86.5t25 -125zM1042 924q0 43 -14 71.5t-36.5 45t-52.5 23.5 t-62 7h-209v-295h243q23 0 46.5 7.5t42 24.5t30.5 46t12 70z" />
<glyph unicode="&#xaf;" horiz-adv-x="1036" d="M895 1450q0 -29 -18.5 -49.5t-47.5 -20.5h-512q-29 0 -49 20.5t-20 49.5t19.5 47.5t47.5 18.5h514q29 0 47.5 -18.5t18.5 -47.5z" />
<glyph unicode="&#xb0;" horiz-adv-x="942" d="M776 1169q0 -63 -24.5 -118.5t-65.5 -97.5t-96 -65.5t-119 -23.5q-63 0 -118.5 23.5t-97.5 65.5t-65.5 97.5t-23.5 118.5t23.5 118.5t65.5 96.5t97.5 66t118.5 25t118.5 -25t96.5 -66t65.5 -96.5t24.5 -118.5zM641 1169q0 72 -49 122t-121 50t-122 -50t-50 -122t50 -121 t122 -49t121 49t49 121z" />
<glyph unicode="&#xb1;" d="M901 870q0 -29 -19.5 -49t-47.5 -20h-226v-223q0 -29 -19.5 -49.5t-47.5 -20.5q-29 0 -48.5 20.5t-19.5 49.5v223h-225q-29 0 -48.5 20.5t-19.5 48.5q0 29 19.5 47.5t48.5 18.5h225v227q0 29 19.5 47.5t48.5 18.5t48 -19.5t19 -48.5v-225h226q29 0 48 -18.5t19 -47.5z M905 225q0 -29 -19.5 -49t-47.5 -20h-607q-29 0 -47 20.5t-18 48.5q0 29 18.5 47.5t46.5 18.5h607q29 0 48 -18.5t19 -47.5z" />
<glyph unicode="&#xb2;" horiz-adv-x="614" d="M541 764q0 -23 -15.5 -38t-38.5 -15l-378 -2q-14 0 -24.5 9t-10.5 25v58q0 35 13 70.5t44 68.5q18 20 50 50l66 61l62 55l41 35q47 43 53.5 70.5t6.5 52.5q0 37 -10.5 58t-27 31.5t-37 13.5t-40.5 3q-41 0 -64.5 -21.5t-44.5 -74.5q-8 -23 -25.5 -34t-39.5 -7 q-23 6 -33 24.5t-6 40.5q6 23 15 49.5t28 49.5q25 33 66.5 55.5t111.5 22.5q41 0 80 -14.5t68.5 -40t47 -63.5t17.5 -87q0 -72 -20.5 -110t-53.5 -68l-49 -45l-52 -48l-49 -43l-38 -32q-41 -37 -53.5 -56.5t-12.5 -50.5h299q23 0 38.5 -15t15.5 -38z" />
<glyph unicode="&#xb3;" horiz-adv-x="614" d="M528 961q-14 -57 -56 -103.5t-89 -73.5q-59 -35 -123.5 -52t-120.5 -19q-23 0 -38 14t-15 37t15.5 39t37.5 16q47 0 94.5 12.5t83.5 34.5q43 27 73 51.5t40 63.5q10 37 -1 69.5t-40 49.5q-12 8 -32.5 9t-41 -1t-37.5 -6l-26 -6l-41 -11q-25 -6 -39 2q-16 10 -24.5 32 t2.5 38q4 4 8 10q8 12 20 25l170 178h-201q-23 0 -38 15.5t-15 37.5q0 23 15.5 38.5t37.5 15.5h293q23 0 38.5 -14.5t15.5 -39.5q0 -33 -19 -53l-164 -178q43 8 82 0t68 -29q37 -25 60 -80.5t7 -121.5z" />
<glyph unicode="&#xb4;" horiz-adv-x="1036" d="M522 1333q-20 -20 -46.5 -20t-47.5 20q-20 20 -21 49t19 48l252 249q23 23 49.5 22t46.5 -22q20 -20 19.5 -45.5t-19.5 -46.5z" />
<glyph unicode="&#xb5;" horiz-adv-x="1173" d="M1040 94q18 -20 18.5 -48t-20.5 -46q-20 -20 -45.5 -19t-48.5 19q-16 14 -30.5 34.5t-24.5 37.5q-12 20 -23 41q-53 -68 -132 -98.5t-185 -30.5q-86 0 -152.5 41t-113.5 106v-424q0 -29 -19.5 -47t-48.5 -18t-48.5 19.5t-19.5 47.5v1348q0 29 19.5 48t48.5 19t48.5 -19.5 t19.5 -47.5v-586q0 -76 15 -140.5t48 -111.5t83 -73.5t120 -26.5q276 0 276 325v615q0 29 19.5 48t48.5 19t48.5 -19.5t19.5 -47.5v-754q0 -47 10 -83t23.5 -62.5t26.5 -42t19 -23.5z" />
<glyph unicode="&#xb6;" horiz-adv-x="970" d="M786 61q0 -29 -19 -48t-48 -19t-47.5 19.5t-18.5 47.5v455h-135q-92 0 -170 28.5t-134 86t-89 143.5t-33 203v37q0 115 33 202t89 144t134 86t170 29h201q29 0 48 -19.5t19 -48.5v-1346z" />
<glyph unicode="&#xb7;" horiz-adv-x="741" d="M594 733q0 -43 -16.5 -81t-44 -65.5t-64.5 -44t-80 -16.5t-80 16.5t-64.5 44t-44 65.5t-16.5 81q0 41 16.5 78t44 64.5t64.5 44t80 16.5t80 -16.5t64.5 -44t44 -64.5t16.5 -78z" />
<glyph unicode="&#xb8;" horiz-adv-x="493" d="M418 -213q-8 -27 -22.5 -40t-31 -19.5t-33 -7.5t-30.5 -1h-94q-29 0 -47.5 19.5t-18.5 48.5t19.5 48.5t48.5 19.5h94l53 157h138z" />
<glyph unicode="&#xb9;" horiz-adv-x="614" d="M375 764q0 -23 -15.5 -38t-37.5 -15q-23 0 -38.5 15t-15.5 38v545q-20 -20 -36.5 -31.5t-38.5 -17.5q-23 -6 -41.5 -4.5t-28.5 16.5q-14 23 -7 44t29 34q16 6 30.5 15t43.5 32t33 34t14 21q8 8 20.5 15.5t35.5 7.5t38 -14.5t15 -41.5v-655z" />
<glyph unicode="&#xba;" horiz-adv-x="925" d="M756 1092q0 -193 -78 -288t-225 -95t-226.5 95t-79.5 288t79 288t227 95q147 0 225 -95t78 -288zM797 524q0 -29 -19.5 -48t-48.5 -19h-534q-29 0 -47.5 19.5t-18.5 47.5q0 29 18.5 48.5t47.5 19.5h534q29 0 48.5 -19.5t19.5 -48.5zM641 1122q0 117 -40 180.5t-148 63.5 q-109 0 -150 -64.5t-41 -179.5v-57q0 -115 41 -182.5t150 -67.5q106 0 147 67.5t41 182.5v57z" />
<glyph unicode="&#xbb;" horiz-adv-x="989" d="M827 487q0 -27 -18 -45l-254 -254q-20 -20 -47 -20t-45 20q-20 20 -21.5 47t21.5 50l203 202l-203 205q-20 23 -20.5 49.5t20.5 46.5q18 20 45 20.5t47 -20.5l254 -253q18 -19 18 -48zM430 487q0 -27 -18 -45l-254 -254q-20 -20 -47 -20t-48 20q-18 20 -19 48t19 49 l205 202l-205 205q-20 20 -19 48t19 48q20 20 47 20.5t48 -20.5l254 -253q18 -19 18 -48z" />
<glyph unicode="&#xbc;" horiz-adv-x="1372" d="M1296 231q0 -23 -15 -38t-38 -15h-41v-131q0 -23 -15.5 -38t-37.5 -15q-23 0 -38 15.5t-15 37.5v131h-244q-23 0 -42 13.5t-19 35.5v25q0 76 29.5 146.5t58.5 123.5l39 65l39 64l35 55q15 24 24 31q14 18 35.5 23.5t38.5 -6.5q23 -14 25.5 -36t-9.5 -40l-55 -81l-37 -56 l-27 -43q-31 -45 -57.5 -101.5t-26.5 -93.5v-18h191v151q0 23 15 38t38 15t38 -15t15 -38v-151h41q23 0 39 -15.5t16 -38.5zM360 35q-12 -25 -37.5 -35t-50.5 0q-27 12 -37 37.5t3 52.5l653 1352q12 27 36.5 37t51.5 -2q27 -10 37 -36t-4 -52zM330 764q0 -23 -15.5 -38 t-38.5 -15t-39 15t-16 38v545q-20 -20 -35.5 -31.5t-38.5 -17.5t-42 -4.5t-27 16.5q-16 23 -9 44t29 34q16 6 30.5 15t43.5 32q27 23 32 34t15 21q8 8 20.5 15.5t34.5 7.5q23 0 38.5 -14.5t15.5 -41.5v-655h2z" />
<glyph unicode="&#xbd;" horiz-adv-x="1372" d="M1278 57q0 -23 -15.5 -40t-37.5 -17h-379q-16 0 -25.5 10t-9.5 25v59q0 33 12.5 70t42.5 69q18 20 52 51l66 60l63 55l40 35q47 41 53.5 68.5t6.5 54.5q0 37 -10.5 57.5t-26.5 31.5t-36.5 14.5t-41.5 3.5q-43 0 -66.5 -21.5t-41.5 -75.5q-8 -23 -25.5 -34t-40.5 -7 t-34 23.5t-7 42.5q6 23 15.5 48.5t27.5 47.5q27 33 68 56.5t110 23.5q43 0 82 -14.5t69 -41t47 -64.5t17 -85q0 -74 -20.5 -110.5t-52.5 -67.5q-23 -23 -50 -46l-53 -47l-50 -44l-38 -33q-41 -37 -52 -56.5t-11 -47.5h299q23 0 38 -15.5t15 -38.5zM356 35q-12 -27 -36.5 -36 t-49.5 1q-27 12 -37 37.5t3 50.5l655 1356q12 25 37.5 35t52.5 -2q25 -10 35 -36t-2 -52zM354 766q0 -23 -16 -38t-39 -15t-38 15t-15 38v545q-20 -20 -36.5 -31.5t-39.5 -17.5q-20 -4 -38.5 -3t-29.5 17q-14 23 -7 44t30 32l30 16q15 8 42 31q29 23 34 34t15 21 q8 10 19 16.5t34 6.5t39 -14.5t16 -41.5v-655z" />
<glyph unicode="&#xbe;" horiz-adv-x="1372" d="M1296 231q0 -23 -15 -38t-38 -15h-41v-131q0 -23 -15.5 -38t-37.5 -15q-23 0 -38 15.5t-15 37.5v131h-244q-23 0 -42 13.5t-19 35.5v25q0 76 29.5 146.5t58.5 123.5l39 65l39 64l35 55q15 24 24 31q14 18 35.5 23.5t38.5 -6.5q23 -14 25.5 -36t-9.5 -40l-55 -81l-37 -56 l-27 -43q-31 -45 -57.5 -101.5t-26.5 -93.5v-18h191v151q0 23 15 38t38 15t38 -15t15 -38v-151h41q23 0 39 -15.5t16 -38.5zM391 35q-12 -25 -37.5 -35t-50.5 0q-27 12 -37 37.5t2 52.5l654 1352q12 27 36.5 37t51.5 -2q27 -10 37 -36t-5 -52zM510 961q-14 -57 -56 -103.5 t-89 -73.5q-59 -35 -124 -52t-120 -19q-23 0 -38 14t-15 37t15 39t38 16q47 0 94 12.5t84 34.5q43 27 72.5 51.5t40.5 63.5q10 37 -1.5 69.5t-39.5 49.5q-12 8 -33 9t-41.5 -1t-37.5 -6l-26 -6l-40 -11q-25 -6 -39 2q-16 10 -24.5 32t1.5 38q4 4 8 10q8 12 21 25l170 178 h-201q-23 0 -38 15.5t-15 37.5q0 23 15 38.5t38 15.5h293q23 0 38 -14.5t15 -39.5q0 -33 -18 -53l-164 -178q43 8 82 0t67 -29q37 -25 60.5 -80.5t7.5 -121.5z" />
<glyph unicode="&#xbf;" horiz-adv-x="1011" d="M743 936q0 -43 -16 -80t-44 -64.5t-64.5 -44t-77.5 -16.5q-43 0 -81 16.5t-65.5 44t-43 64.5t-15.5 80t15.5 81t43 65.5t65.5 44t81 16.5q41 0 77.5 -16.5t64.5 -44t44 -65.5t16 -81zM895 -176q-10 -25 -38 -58.5t-72 -63.5t-105.5 -50.5t-140.5 -20.5q-76 0 -149 18.5 t-131 59.5t-94 109.5t-36 171.5q0 76 17.5 129t45 90t63.5 63.5t73 49.5l86 53q20 12 31.5 18t17.5 14.5t8 19.5t2 36v49q0 29 18.5 48.5t47.5 19.5t48 -19.5t19 -48.5v-145q0 -37 -17.5 -57.5t-49.5 -39.5q-16 -10 -43 -24.5t-60 -34.5q-29 -16 -56.5 -36.5t-49 -46.5 t-35.5 -58.5t-14 -71.5q0 -78 27.5 -124t67.5 -70.5t84 -32t79 -7.5q72 0 132 35t99 90q35 53 94 33q29 -10 35 -39.5t-4 -58.5z" />
<glyph unicode="&#xc0;" horiz-adv-x="1159" d="M729 1677q-23 -20 -50.5 -21t-45.5 19l-250 252q-23 23 -22 49.5t22 46.5q18 20 45 20.5t47 -20.5l254 -254q18 -20 18 -47t-18 -45zM1036 76q4 -29 -10 -52.5t-43 -27.5q-29 -6 -51.5 9t-26.5 44l-59 338h-531l-61 -338q-4 -29 -25.5 -44t-50.5 -9q-29 4 -43 27.5 t-10 52.5l242 1327q4 29 26.5 50.5t50.5 21.5h273q29 0 51.5 -21.5t28.5 -50.5zM688 1270q-6 29 -20.5 48t-42.5 19h-86q-29 0 -44.5 -19.5t-19.5 -47.5l-135 -750h483z" />
<glyph unicode="&#xc1;" horiz-adv-x="1171" d="M1036 76q1 -6 1 -12q0 -22 -12 -40q-15 -24 -42 -28q-8 -2 -16 -2q-19 0 -35 11q-23 15 -27 44l-61 338h-531l-59 -338q-6 -29 -27 -44q-15 -11 -33 -11q-8 0 -16 2q-29 4 -44 28q-11 17 -11 36q0 8 2 16l240 1327q4 29 26.5 50.5t50.5 21.5h273q29 0 52.5 -21.5 t27.5 -50.5zM686 1270q-4 29 -19.5 48t-43.5 19h-86q-29 0 -44.5 -19.5t-19.5 -47.5l-135 -750h483zM522 1679q-20 -20 -46.5 -20t-47.5 20q-20 20 -21 49t19 48l252 249q23 23 49.5 22t46.5 -22q20 -20 19.5 -45.5t-19.5 -46.5z" />
<glyph unicode="&#xc2;" horiz-adv-x="1157" d="M1034 76q4 -29 -10 -52.5t-43 -27.5q-29 -6 -51.5 9t-26.5 44l-59 338h-531l-61 -338q-4 -29 -25.5 -44t-50.5 -9q-29 4 -43 27.5t-10 52.5l242 1327q4 29 26.5 50.5t50.5 21.5h273q29 0 51 -21.5t29 -50.5zM686 1270q-6 29 -20.5 48t-42.5 19h-86q-29 0 -44.5 -19.5 t-19.5 -47.5l-135 -750h483zM879 1681q-20 -20 -48 -20t-49 20l-204 203l-203 -203q-20 -20 -48 -20t-48 20t-20.5 47t20.5 48l251 252q20 20 48 20q23 0 47 -20l254 -252q18 -18 18 -46.5t-18 -48.5z" />
<glyph unicode="&#xc3;" horiz-adv-x="1157" d="M1034 76q4 -29 -10 -52.5t-43 -27.5q-29 -6 -51.5 9t-26.5 44l-59 338h-531l-61 -338q-4 -29 -25.5 -44t-50.5 -9q-29 4 -43 27.5t-10 52.5l242 1327q4 29 26.5 50.5t50.5 21.5h273q29 0 51 -21.5t29 -50.5zM686 1270q-6 29 -20.5 48t-42.5 19h-86q-29 0 -44.5 -19.5 t-19.5 -47.5l-135 -750h483zM944 1776q-41 -53 -85 -80t-99 -31q-18 -2 -34.5 -3t-36 1t-41 10t-48.5 25l-68 41q-29 16 -51 17t-43 -3q-51 -8 -90 -61q-18 -23 -43.5 -26t-48.5 13t-26 44t14 51q41 53 86 77.5t98 32.5q35 4 71 1t89 -34l67 -41q29 -16 51.5 -17t45.5 3 q45 8 88 62q16 23 42.5 25.5t49.5 -13.5t25.5 -43.5t-13.5 -50.5z" />
<glyph unicode="&#xc4;" horiz-adv-x="1157" d="M1036 76q1 -6 1 -12q0 -22 -12 -40q-15 -24 -42 -28q-8 -2 -16 -2q-19 0 -35 11q-23 15 -27 44l-61 338h-531l-59 -338q-6 -29 -27 -44q-15 -11 -33 -11q-8 0 -16 2q-29 4 -44 28q-11 17 -11 36q0 8 2 16l240 1327q4 29 26.5 50.5t50.5 21.5h273q29 0 52.5 -21.5 t27.5 -50.5zM686 1270q-4 29 -19.5 48t-43.5 19h-86q-29 0 -44.5 -19.5t-19.5 -47.5l-135 -750h483zM1071 1866q0 -43 -16 -80t-44 -64.5t-65 -44t-80 -16.5q-86 0 -145 59.5t-59 145.5t59 145.5t145 59.5q43 0 80 -16.5t65 -44.5t44 -64.5t16 -79.5zM500 1866 q0 -43 -16.5 -80t-44 -64.5t-64.5 -44t-80 -16.5q-86 0 -145.5 59.5t-59.5 145.5t59.5 145.5t145.5 59.5q43 0 80 -16.5t64.5 -44.5t44 -64.5t16.5 -79.5z" />
<glyph unicode="&#xc5;" horiz-adv-x="1157" d="M1036 76q1 -6 1 -12q0 -22 -12 -40q-15 -24 -42 -28q-8 -2 -16 -2q-19 0 -35 11q-23 15 -27 44l-61 338h-531l-59 -338q-6 -29 -27 -44q-15 -11 -33 -11q-8 0 -16 2q-29 4 -44 28q-11 17 -11 36q0 8 2 16l240 1327q4 29 26.5 50.5t50.5 21.5h273q29 0 52.5 -21.5 t27.5 -50.5zM686 1270q-4 29 -19.5 48t-43.5 19h-86q-29 0 -44.5 -19.5t-19.5 -47.5l-135 -750h483zM807 1894q0 -47 -18.5 -89t-49.5 -72.5t-73 -49t-89 -18.5t-89 18.5t-72.5 49t-49 72.5t-18.5 89t18.5 89t49 73t72.5 49.5t89 18.5t89 -18.5t73 -49.5t49.5 -73t18.5 -89z M678 1894q0 41 -30 71t-71 30t-70.5 -30t-29.5 -71t29.5 -70.5t70.5 -29.5t71 29.5t30 70.5z" />
<glyph unicode="&#xc6;" horiz-adv-x="1695" d="M1556 68q0 -29 -19 -48.5t-48 -19.5h-602q-29 0 -48.5 19.5t-19.5 48.5v315l-483 -2l-4 2l-62 -338q-4 -29 -26.5 -43t-48.5 -10q-29 6 -44.5 27.5t-11.5 50.5l242 1333q4 29 26.5 50.5t51.5 21.5h1030q29 0 48 -18.5t19 -47.5t-19 -48.5t-48 -19.5l-537 -2v-524h455 q29 0 48.5 -19.5t19.5 -47.5q0 -29 -19.5 -48.5t-48.5 -19.5h-455v-547h537q29 0 48 -18t19 -47zM819 1276q-4 29 -22.5 48t-46.5 19h-191q-29 0 -47 -19t-23 -48l-135 -760h465v760z" />
<glyph unicode="&#xc7;" horiz-adv-x="1122" d="M1049 358q-2 -23 -11.5 -52.5t-24 -60t-31.5 -59t-36 -49.5q-27 -31 -57.5 -57.5t-69.5 -48t-90 -33.5t-117 -12q-94 0 -176 25.5t-143.5 80.5t-99 143.5t-46.5 213.5q-4 51 -6 118.5t-2 142t2 155.5t6 159q8 129 48.5 217t102.5 142.5t143 79t171 24.5q86 0 148.5 -25.5 t107.5 -61.5t72 -72l41 -56q16 -25 12 -50.5t-26 -41.5q-25 -18 -54.5 -12t-56.5 38q-23 29 -46.5 55.5t-51 47t-63.5 33t-83 12.5q-133 0 -224 -72t-107 -227q-6 -49 -8.5 -128t-2.5 -168t2 -180.5t9 -160.5q10 -141 103 -220t228 -79q131 0 217 92q29 31 49.5 72t36.5 88 q29 82 91 65q23 -4 35 -25.5t8 -52.5zM621 -213q-8 -27 -22.5 -40t-31 -19.5t-33 -7.5t-30.5 -1h-94q-29 0 -47.5 19.5t-18.5 48.5t19.5 48.5t48.5 19.5h94l53 157h137z" />
<glyph unicode="&#xc8;" horiz-adv-x="1144" d="M1022 68q0 -29 -18.5 -48.5t-47.5 -19.5h-704q-29 0 -48.5 19.5t-19.5 48.5v1339q0 29 19.5 48.5t48.5 19.5h686q29 0 47.5 -18.5t18.5 -47.5t-18.5 -49.5t-47.5 -20.5h-616v-520h534q29 0 48.5 -18.5t19.5 -46.5q0 -29 -19.5 -48.5t-48.5 -19.5h-534v-551h634 q29 0 47.5 -19t18.5 -48zM730 1681q-20 -20 -48 -21t-49 19l-250 252q-20 23 -20 49.5t20 46.5q18 20 45 20.5t48 -20.5l254 -254q20 -20 20 -47t-20 -45z" />
<glyph unicode="&#xc9;" horiz-adv-x="1144" d="M1022 68q0 -29 -18.5 -48.5t-47.5 -19.5h-704q-29 0 -48.5 19.5t-19.5 48.5v1339q0 29 19.5 48.5t48.5 19.5h686q29 0 47.5 -18.5t18.5 -47.5t-18.5 -49.5t-47.5 -20.5h-616v-520h534q29 0 48.5 -18.5t19.5 -46.5q0 -29 -19.5 -48.5t-48.5 -19.5h-534v-551h634 q29 0 47.5 -19t18.5 -48zM520 1681q-20 -20 -46.5 -20t-47.5 20q-20 20 -21 49t19 48l252 249q23 23 49.5 22t46.5 -22q20 -20 19.5 -45.5t-19.5 -46.5z" />
<glyph unicode="&#xca;" horiz-adv-x="1144" d="M1022 68q0 -29 -18.5 -48.5t-47.5 -19.5h-704q-29 0 -48.5 19.5t-19.5 48.5v1339q0 29 19.5 48.5t48.5 19.5h686q29 0 47.5 -18.5t18.5 -47.5t-18.5 -49.5t-47.5 -20.5h-616v-520h534q29 0 48.5 -18.5t19.5 -46.5q0 -29 -19.5 -48.5t-48.5 -19.5h-534v-551h634 q29 0 47.5 -19t18.5 -48zM899 1681q-20 -20 -48 -20t-48 20l-205 203l-203 -203q-20 -20 -48 -20t-48 20t-20 47t20 48l252 252q20 20 47 20q23 0 47 -20l254 -252q18 -18 18 -46.5t-18 -48.5z" />
<glyph unicode="&#xcb;" horiz-adv-x="1161" d="M1022 68q0 -29 -18.5 -48.5t-47.5 -19.5h-704q-29 0 -48.5 19.5t-19.5 48.5v1339q0 29 19.5 48.5t48.5 19.5h686q29 0 47.5 -18.5t18.5 -47.5t-18.5 -49.5t-47.5 -20.5h-616v-520h534q29 0 48.5 -18.5t19.5 -46.5q0 -29 -19.5 -48.5t-48.5 -19.5h-534v-551h634 q29 0 47.5 -19t18.5 -48zM1087 1866q0 -43 -16 -80t-44 -64.5t-65 -44t-80 -16.5q-86 0 -145 59.5t-59 145.5t59 145.5t145 59.5q43 0 80 -16.5t65 -44.5t44 -64.5t16 -79.5zM516 1866q0 -43 -16.5 -80t-44 -64.5t-64.5 -44t-80 -16.5q-86 0 -145.5 59.5t-59.5 145.5 t59.5 145.5t145.5 59.5q43 0 80 -16.5t64.5 -44.5t44 -64.5t16.5 -79.5z" />
<glyph unicode="&#xcc;" horiz-adv-x="849" d="M707 68q0 -29 -19.5 -48.5t-48.5 -19.5h-436q-29 0 -49.5 19.5t-20.5 48.5t19.5 48t48.5 19h153v1204h-143q-29 0 -48.5 20.5t-19.5 49.5t18.5 47.5t47.5 18.5h422q29 0 48 -18.5t19 -47.5t-19.5 -49.5t-47.5 -20.5h-144v-1204h154q29 0 47.5 -19t18.5 -48zM582 1679 q-20 -20 -48 -21t-49 19l-250 252q-20 23 -20 49.5t20 46.5q18 20 45 20.5t48 -20.5l254 -254q20 -20 20 -47t-20 -45z" />
<glyph unicode="&#xcd;" horiz-adv-x="849" d="M707 68q0 -29 -19.5 -48.5t-48.5 -19.5h-436q-29 0 -49.5 19.5t-20.5 48.5t19.5 48t48.5 19h153v1204h-143q-29 0 -48.5 20.5t-19.5 49.5t18.5 47.5t47.5 18.5h422q29 0 48 -18.5t19 -47.5t-19.5 -49.5t-47.5 -20.5h-144v-1204h154q29 0 47.5 -19t18.5 -48zM383 1681 q-20 -20 -46.5 -20t-47.5 20q-20 20 -21 49t19 48l252 249q23 23 49.5 22t46.5 -22q20 -20 19.5 -45.5t-19.5 -46.5z" />
<glyph unicode="&#xce;" horiz-adv-x="849" d="M707 68q0 -29 -19.5 -48.5t-48.5 -19.5h-436q-29 0 -49.5 19.5t-20.5 48.5t19.5 48t48.5 19h153v1204h-143q-29 0 -48.5 20.5t-19.5 49.5t18.5 47.5t47.5 18.5h422q29 0 48 -18.5t19 -47.5t-19.5 -49.5t-47.5 -20.5h-144v-1204h154q29 0 47.5 -19t18.5 -48zM731 1685 q-20 -20 -48 -20t-48 20l-205 203l-203 -203q-20 -20 -48 -20t-48 20t-20.5 47t20.5 48l252 251q20 20 47 21q23 0 47 -21l254 -251q20 -18 19 -46.5t-19 -48.5z" />
<glyph unicode="&#xcf;" horiz-adv-x="849" d="M707 68q0 -29 -19.5 -48.5t-48.5 -19.5h-436q-29 0 -49.5 19.5t-20.5 48.5t19.5 48t48.5 19h153v1204h-143q-29 0 -48.5 20.5t-19.5 49.5t18.5 47.5t47.5 18.5h422q29 0 48 -18.5t19 -47.5t-19.5 -49.5t-47.5 -20.5h-144v-1204h154q29 0 47.5 -19t18.5 -48zM927 1864 q0 -43 -16 -80t-44 -64.5t-65 -44t-80 -16.5q-86 0 -145 59.5t-59 145.5t59 145.5t145 59.5q43 0 80 -16.5t65 -44.5t44 -64.5t16 -79.5zM356 1864q0 -43 -16.5 -80t-44 -64.5t-64.5 -44t-80 -16.5q-86 0 -145.5 59.5t-59.5 145.5t59.5 145.5t145.5 59.5q43 0 80 -16.5 t64.5 -44.5t44 -64.5t16.5 -79.5z" />
<glyph unicode="&#xd0;" horiz-adv-x="1366" d="M1208 479q-8 -129 -45 -220t-96 -148.5t-138 -84t-169 -26.5h-361q-29 0 -48 19.5t-19 48.5v737h-80q-29 0 -48.5 19.5t-19.5 47.5q0 29 19.5 47.5t48.5 18.5h80v477q0 29 19.5 48.5t47.5 19.5h361q94 0 173 -28t137 -86t94 -149.5t44 -215.5q8 -104 9 -234.5t-9 -290.5z M1075 449q6 49 8 119.5t2 150.5t-3 162t-7 153q-10 141 -95 228.5t-220 87.5h-295v-412h375q29 0 48 -18.5t19 -47.5t-19.5 -48t-47.5 -19h-375v-670h295q135 0 217 79t98 235z" />
<glyph unicode="&#xd1;" horiz-adv-x="1212" d="M1028 59q0 -29 -17.5 -45t-45.5 -20q-4 0 -9 -1q-42 0 -63 38l-574 1091v-1063q0 -29 -19 -47t-48 -18t-48.5 18.5t-19.5 46.5v1348q0 29 19.5 48.5t48.5 19.5q47 0 67 -39l574 -1096v1067q0 29 20.5 48.5t49.5 19.5t47 -19.5t18 -48.5v-1348zM964 1777 q-78 -102 -184 -110q-18 -2 -34.5 -3t-35 1t-41 10t-49.5 25l-68 41q-29 16 -51 17t-43 -3q-47 -8 -90 -62q-16 -23 -42.5 -25.5t-49.5 13.5t-26 44t14 50q41 53 86 78t98 33q35 4 71 1t89 -34l67 -41q29 -16 51.5 -17t45.5 3q45 8 88 61q16 23 42.5 26t49.5 -13t25.5 -44 t-13.5 -51z" />
<glyph unicode="&#xd2;" horiz-adv-x="1196" d="M1053 461q-8 -125 -45 -214t-97.5 -147.5t-139.5 -86t-173 -27.5t-173 27.5t-139.5 86t-97 147.5t-45.5 214q-8 104 -9 248v26q0 131 9 273q8 129 46 220t98.5 148.5t140.5 84t170 26.5t170 -26.5t140.5 -84t98 -148.5t46.5 -220q9 -141 9 -273v-26q-1 -144 -9 -248z M920 430q4 72 7 158t3 170t-2 158.5t-8 123.5q-16 156 -101.5 235t-220.5 79q-133 0 -219 -79t-103 -235q-6 -49 -8 -123.5t-2 -158.5t2 -170t8 -158q4 -70 31 -127t69 -98t99 -63.5t123 -22.5q135 0 223.5 85t98.5 226zM727 1681q-20 -20 -48 -21t-49 19l-250 252 q-20 23 -20 49.5t20 46.5q18 20 45 20.5t48 -20.5l254 -254q20 -20 20 -47t-20 -45z" />
<glyph unicode="&#xd3;" horiz-adv-x="1196" d="M1053 461q-8 -125 -45 -214t-97.5 -147.5t-139.5 -86t-173 -27.5t-173 27.5t-139.5 86t-97 147.5t-45.5 214q-8 104 -9 248v26q0 131 9 273q8 129 46 220t98.5 148.5t140.5 84t170 26.5t170 -26.5t140.5 -84t98 -148.5t46.5 -220q9 -141 9 -273v-26q-1 -144 -9 -248z M920 430q4 72 7 158t3 170t-2 158.5t-8 123.5q-16 156 -101.5 235t-220.5 79q-133 0 -219 -79t-103 -235q-6 -49 -8 -123.5t-2 -158.5t2 -170t8 -158q4 -70 31 -127t69 -98t99 -63.5t123 -22.5q135 0 223.5 85t98.5 226zM522 1675q-20 -20 -46.5 -20t-47.5 20q-20 20 -21 49 t19 48l252 249q23 23 49.5 22t46.5 -22q20 -20 19.5 -45.5t-19.5 -46.5z" />
<glyph unicode="&#xd4;" horiz-adv-x="1196" d="M1053 461q-8 -125 -45 -214t-97.5 -147.5t-139.5 -86t-173 -27.5t-173 27.5t-139.5 86t-97 147.5t-45.5 214q-8 104 -9 248v26q0 131 9 273q8 129 46 220t98.5 148.5t140.5 84t170 26.5t170 -26.5t140.5 -84t98 -148.5t46.5 -220q9 -141 9 -273v-26q-1 -144 -9 -248z M920 430q4 72 7 158t3 170t-2 158.5t-8 123.5q-16 156 -101.5 235t-220.5 79q-133 0 -219 -79t-103 -235q-6 -49 -8 -123.5t-2 -158.5t2 -170t8 -158q4 -70 31 -127t69 -98t99 -63.5t123 -22.5q135 0 223.5 85t98.5 226zM899 1681q-20 -20 -48 -20t-48 20l-205 203 l-203 -203q-20 -20 -48 -20t-48 20t-20.5 47t20.5 48l252 251q20 20 47 21q23 0 47 -21l254 -251q20 -18 19 -46.5t-19 -48.5z" />
<glyph unicode="&#xd5;" horiz-adv-x="1196" d="M1053 461q-8 -125 -45 -214t-97.5 -147.5t-139.5 -86t-173 -27.5t-173 27.5t-139.5 86t-97 147.5t-45.5 214q-8 104 -9 248v26q0 131 9 273q8 129 46 220t98.5 148.5t140.5 84t170 26.5t170 -26.5t140.5 -84t98 -148.5t46.5 -220q9 -141 9 -273v-26q-1 -144 -9 -248z M920 430q4 72 7 158t3 170t-2 158.5t-8 123.5q-16 156 -101.5 235t-220.5 79q-133 0 -219 -79t-103 -235q-6 -49 -8 -123.5t-2 -158.5t2 -170t8 -158q4 -70 31 -127t69 -98t99 -63.5t123 -22.5q135 0 223.5 85t98.5 226zM967 1777q-78 -102 -184 -110q-18 -2 -34.5 -3t-35 1 t-41 10t-49.5 25l-68 41q-29 16 -51 17t-43 -3q-47 -8 -90 -62q-16 -23 -42.5 -25.5t-49.5 13.5t-26 44t14 50q41 53 86 78t98 33q35 4 71 1t89 -34l67 -41q29 -16 51.5 -17t45.5 3q45 8 88 61q16 23 42.5 26t49.5 -13t25.5 -44t-13.5 -51z" />
<glyph unicode="&#xd6;" horiz-adv-x="1196" d="M1055 461q-10 -125 -47 -214t-96.5 -147.5t-138.5 -86t-173 -27.5t-173 27.5t-139.5 86t-97 147.5t-45.5 214q-8 104 -10 247.5t8 299.5q8 129 46 220t98.5 148.5t140.5 84t170 26.5t170 -26.5t140.5 -84t98 -148.5t46.5 -220q10 -156 9 -299.5t-7 -247.5zM920 430 q6 72 8 158t2 170t-2 158.5t-6 123.5q-18 156 -102.5 235t-219.5 79q-133 0 -219 -79t-102 -235q-6 -49 -8.5 -123.5t-2.5 -158.5t2 -170t6 -158q6 -70 32 -127t69 -98t99 -63.5t122 -22.5q135 0 224.5 85t97.5 226zM1090 1866q0 -43 -16.5 -80t-44.5 -64.5t-64.5 -44 t-79.5 -16.5t-80 16.5t-65.5 44t-45 64.5t-16.5 80q0 86 59.5 145.5t145.5 59.5q43 0 80.5 -16.5t65.5 -44.5t44.5 -64.5t16.5 -79.5zM518 1866q0 -43 -16.5 -80t-44 -64.5t-64.5 -44t-80 -16.5t-79.5 16.5t-65.5 44t-45.5 64.5t-16.5 80q0 86 59.5 145.5t145.5 59.5 q43 0 80 -16.5t64.5 -44.5t44 -64.5t16.5 -79.5h2z" />
<glyph unicode="&#xd7;" horiz-adv-x="1304" d="M1128 10q-20 -20 -46.5 -20t-47.5 20l-381 381l-381 -383q-18 -20 -46.5 -19t-49.5 19q-20 20 -20 48t20 48l381 381l-383 383q-18 20 -19 47t19 48q20 20 48 20t48 -20l383 -381l379 381q20 20 48 21t48 -19t20.5 -48t-20.5 -49l-380 -381l380 -381q20 -20 20 -48 t-20 -48z" />
<glyph unicode="&#xd8;" horiz-adv-x="1206" d="M1016 1251q47 -98 55 -241q10 -158 9 -300.5t-9 -246.5q-8 -125 -45 -215t-97.5 -148.5t-139 -86t-173.5 -27.5q-104 0 -189 32.5t-144 104.5l-56 -84q-16 -23 -41.5 -32t-50.5 7q-23 14 -31 42t9 50l94 146q-35 86 -45 211q-8 104 -9 246.5t9 300.5q8 129 46 220 t98.5 147.5t140 83t169.5 26.5q94 0 175 -27.5t143 -89.5l45 66q16 23 42 31t50 -7q25 -16 32 -42.5t-9 -49.5zM856 1251q-84 102 -240 103q-133 0 -219 -79t-102 -235q-6 -49 -8 -123.5t-2 -158.5t3 -170t7 -158q0 -10 1 -18.5t3 -18.5zM938 430q4 72 7 158t3 170t-2 158.5 t-8 123.5q-2 37 -12 72l-566 -868q43 -59 109 -92t147 -33q66 0 123.5 22.5t99.5 63.5t68.5 98t30.5 127z" />
<glyph unicode="&#xd9;" horiz-adv-x="1163" d="M999 408q0 -125 -29.5 -207t-85 -130t-132 -67.5t-170.5 -19.5t-171 19.5t-132.5 67.5t-85 130t-29.5 207v999q0 29 18.5 48.5t46.5 19.5q29 0 49.5 -19.5t20.5 -48.5v-1030q0 -143 73.5 -201.5t209.5 -58.5q135 0 208.5 58t73.5 202v1030q0 29 19.5 48.5t48.5 19.5 t48 -19.5t19 -48.5v-999zM727 1681q-20 -20 -48 -21t-49 19l-250 252q-20 23 -20 49.5t20 46.5q18 20 45 20.5t48 -20.5l254 -254q20 -20 20 -47t-20 -45z" />
<glyph unicode="&#xda;" horiz-adv-x="1163" d="M999 408q0 -125 -29.5 -207t-85 -130t-132 -67.5t-170.5 -19.5t-171 19.5t-132.5 67.5t-85 130t-29.5 207v999q0 29 18.5 48.5t46.5 19.5q29 0 49.5 -19.5t20.5 -48.5v-1030q0 -143 73.5 -201.5t209.5 -58.5q135 0 208.5 58t73.5 202v1030q0 29 19.5 48.5t48.5 19.5 t48 -19.5t19 -48.5v-999zM522 1677q-20 -20 -46.5 -20t-47.5 20q-20 20 -21 49t19 48l252 249q23 23 49.5 22t46.5 -22q20 -20 19.5 -45.5t-19.5 -46.5z" />
<glyph unicode="&#xdb;" horiz-adv-x="1163" d="M999 408q0 -125 -29.5 -207t-85 -130t-132 -67.5t-170.5 -19.5t-171 19.5t-132.5 67.5t-85 130t-29.5 207v999q0 29 18.5 48.5t46.5 19.5q29 0 49.5 -19.5t20.5 -48.5v-1030q0 -143 73.5 -201.5t209.5 -58.5q135 0 208.5 58t73.5 202v1030q0 29 19.5 48.5t48.5 19.5 t48 -19.5t19 -48.5v-999zM881 1681q-20 -20 -48 -20t-48 20l-205 203l-203 -203q-20 -20 -48 -20t-48 20t-20.5 47t20.5 48l252 251q20 20 47 21q23 0 47 -21l254 -251q20 -18 19 -46.5t-19 -48.5z" />
<glyph unicode="&#xdc;" horiz-adv-x="1165" d="M987 408q0 -125 -29.5 -207t-85 -130t-132 -67.5t-171.5 -19.5q-94 0 -170.5 19.5t-132 67.5t-85 130t-29.5 207v999q0 29 18 48.5t47 19.5t49.5 -19.5t20.5 -48.5v-1030q0 -143 73.5 -201.5t208.5 -58.5t209 58t74 202v1030q0 29 19.5 48.5t48.5 19.5t48 -19.5t19 -48.5 v-999zM1073 1866q0 -43 -16.5 -80t-44 -64.5t-64.5 -44t-80 -16.5q-86 0 -145 59.5t-59 145.5t59 145.5t145 59.5q43 0 80 -16.5t64.5 -44.5t44 -64.5t16.5 -79.5zM502 1866q0 -43 -16.5 -80t-44 -64.5t-64.5 -44t-80 -16.5q-86 0 -145.5 59.5t-59.5 145.5t59.5 145.5 t145.5 59.5q43 0 80 -16.5t64.5 -44.5t44 -64.5t16.5 -79.5z" />
<glyph unicode="&#xdd;" horiz-adv-x="1075" d="M506 66q-23 -51 -55.5 -58.5t-61.5 -7.5h-117q-29 0 -48 18.5t-19 47.5t19.5 48t47.5 19h111l170 404l-422 843q-9 15 -9 31q0 10 4 21q9 27 34 41q15 9 30 8q10 0 20 -3q26 -9 40 -36l371 -744l307 744q12 31 39 36q8 2 15 1q18 0 36 -9q27 -12 34 -38q3 -11 3 -22 q0 -15 -6 -30zM522 1683q-20 -20 -46.5 -20t-47.5 20q-20 20 -21 49t19 48l252 249q23 23 49.5 22t46.5 -22q20 -20 19.5 -45.5t-19.5 -46.5z" />
<glyph unicode="&#xde;" horiz-adv-x="1093" d="M1012 760q0 -78 -21.5 -153t-70 -132t-126 -92t-190.5 -35h-285v-287q0 -29 -19 -48t-48 -19t-48.5 19.5t-19.5 47.5v1348q0 29 18.5 47.5t47.5 18.5t49 -18.5t20 -47.5v-254h279q113 0 191.5 -32.5t128 -87t72 -126t22.5 -149.5zM879 760q0 49 -13.5 96t-46.5 84 t-87 58.5t-134 21.5h-276v-537h282q80 0 133.5 24.5t84 63.5t44 89.5t13.5 99.5z" />
<glyph unicode="&#xdf;" horiz-adv-x="1150" d="M1004 399q0 -78 -27 -151.5t-81 -131t-137 -91t-196 -33.5h-24q-29 0 -48.5 19.5t-19.5 47.5q0 29 19.5 48.5t48.5 19.5h24q80 0 138.5 23.5t95.5 62.5t55 88t18 98v68q0 53 -16 101t-51 85t-89.5 58.5t-129.5 21.5q-29 0 -47.5 19.5t-18.5 48.5t19.5 48t48.5 19 q111 0 170 60.5t59 183.5q0 61 -20.5 106.5t-56.5 74t-83 42t-102 13.5q-45 0 -88 -14.5t-76 -44t-52.5 -75t-19.5 -106.5v-1047q0 -29 -18 -48t-47 -19t-48.5 19.5t-19.5 47.5v1039q0 82 28 151.5t77 118.5t116.5 77t147.5 28q90 0 164 -27t125 -75t78.5 -114.5 t27.5 -148.5q0 -96 -27.5 -169t-113.5 -126q113 -59 155 -151.5t42 -196.5v-68z" />
<glyph unicode="&#xe0;" horiz-adv-x="1220" d="M1073 111q20 -23 20.5 -50.5t-20.5 -46.5q-20 -20 -47 -20t-47 22q-20 16 -36.5 40t-29.5 46q-14 25 -26 54q-59 -76 -145.5 -123t-186.5 -47q-92 0 -171 31.5t-137.5 92t-91 149.5t-32.5 204v201q0 117 33.5 203.5t93 146t139.5 89.5t172 30q90 0 163 -37t134 -101v60 q0 29 18.5 49t47.5 20t48 -19.5t19 -47.5v-731q0 -47 10.5 -84t24.5 -63.5t28.5 -43t20.5 -24.5h-2zM858 678q0 143 -81 231t-216 88t-217 -80.5t-82 -222.5v-262q0 -143 79 -227t214 -84t219 84t84 227v246zM664 1335q-20 -20 -48 -21t-49 19l-250 252q-20 23 -20 49.5 t20 46.5q18 20 45 20.5t48 -20.5l254 -254q20 -20 20 -47t-20 -45z" />
<glyph unicode="&#xe1;" horiz-adv-x="1220" d="M1073 111q20 -23 20.5 -50.5t-20.5 -46.5q-20 -20 -47 -20t-47 22q-20 16 -36.5 40t-29.5 46q-14 25 -26 54q-59 -76 -145.5 -123t-186.5 -47q-92 0 -171 31.5t-137.5 92t-91 149.5t-32.5 204v201q0 117 33.5 203.5t93 146t139.5 89.5t172 30q90 0 163 -37t134 -101v60 q0 29 18.5 49t47.5 20t48 -19.5t19 -47.5v-731q0 -47 10.5 -84t24.5 -63.5t28.5 -43t20.5 -24.5h-2zM858 678q0 143 -81 231t-216 88t-217 -80.5t-82 -222.5v-262q0 -143 79 -227t214 -84t219 84t84 227v246zM551 1333q-20 -20 -46.5 -20t-47.5 20q-20 20 -21 49t19 48 l252 249q23 23 49.5 22t46.5 -22q20 -20 19.5 -45.5t-19.5 -46.5z" />
<glyph unicode="&#xe2;" horiz-adv-x="1220" d="M1073 111q20 -23 20.5 -50.5t-20.5 -46.5q-20 -20 -47 -20t-47 22q-20 16 -36.5 40t-29.5 46q-14 25 -26 54q-59 -76 -145.5 -123t-186.5 -47q-92 0 -171 31.5t-137.5 92t-91 149.5t-32.5 204v201q0 117 33.5 203.5t93 146t139.5 89.5t172 30q90 0 163 -37t134 -101v60 q0 29 18.5 49t47.5 20t48 -19.5t19 -47.5v-731q0 -47 10.5 -84t24.5 -63.5t28.5 -43t20.5 -24.5h-2zM858 678q0 143 -81 231t-216 88t-217 -80.5t-82 -222.5v-262q0 -143 79 -227t214 -84t219 84t84 227v246zM883 1335q-20 -20 -48 -20t-48 20l-205 203l-203 -203 q-20 -20 -48 -20t-48 20t-20.5 47t20.5 48l252 251q20 20 47 21q23 0 47 -21l254 -251q20 -18 19 -46.5t-19 -48.5z" />
<glyph unicode="&#xe3;" horiz-adv-x="1220" d="M1073 111q20 -23 20.5 -50.5t-20.5 -46.5q-20 -20 -47 -20t-47 22q-20 16 -36.5 40t-29.5 46q-14 25 -26 54q-59 -76 -145.5 -123t-186.5 -47q-92 0 -171 31.5t-137.5 92t-91 149.5t-32.5 204v201q0 117 33.5 203.5t93 146t139.5 89.5t172 30q90 0 163 -37t134 -101v60 q0 29 18.5 49t47.5 20t48 -19.5t19 -47.5v-731q0 -47 10.5 -84t24.5 -63.5t28.5 -43t20.5 -24.5h-2zM858 678q0 143 -81 231t-216 88t-217 -80.5t-82 -222.5v-262q0 -143 79 -227t214 -84t219 84t84 227v246zM944 1427q-78 -102 -184 -110q-18 -2 -34.5 -3t-35 1t-41 10 t-49.5 25l-68 41q-29 16 -51 17t-43 -3q-47 -8 -90 -62q-16 -23 -42.5 -25.5t-49.5 13.5t-26 44t14 50q41 53 86 78t98 33q35 4 71 1t89 -34l67 -41q29 -16 51.5 -17t45.5 3q45 8 88 61q16 23 42.5 26t49.5 -13t25.5 -44t-13.5 -51z" />
<glyph unicode="&#xe4;" horiz-adv-x="1208" d="M1073 111q18 -23 18.5 -50.5t-20.5 -46.5q-20 -20 -47 -20t-47 22q-20 16 -35.5 40l-28.5 46q-14 25 -26 54q-59 -76 -145.5 -123t-186.5 -47q-92 0 -171 31.5t-137.5 92t-91 149.5t-32.5 204v201q0 117 33.5 203.5t93 146t139.5 89.5t172 30q90 0 163 -37t134 -101v60 q0 29 18.5 49t47.5 20t48 -19.5t19 -47.5v-731q0 -47 10.5 -84t23.5 -63.5t27.5 -43t20.5 -24.5zM858 678q0 143 -81 231t-216 88t-217 -80.5t-82 -222.5v-262q0 -143 79 -227t214 -84t219 84t84 227v246zM1100 1516q0 -43 -16.5 -80t-44 -65t-64.5 -44t-80 -16 q-86 0 -145.5 59.5t-59.5 145.5t59.5 145t145.5 59q43 0 80 -16t64.5 -44t44 -64.5t16.5 -79.5zM528 1516q0 -43 -16 -80t-44 -65t-64.5 -44t-79.5 -16q-86 0 -145.5 59.5t-59.5 145.5t59.5 145t145.5 59q43 0 79.5 -16t64.5 -44t44 -64.5t16 -79.5z" />
<glyph unicode="&#xe5;" horiz-adv-x="1220" d="M1073 111q20 -23 20.5 -50.5t-20.5 -46.5q-20 -20 -47 -20t-47 22q-20 16 -36.5 40t-29.5 46q-14 25 -26 54q-59 -76 -145.5 -123t-186.5 -47q-92 0 -171 31.5t-137.5 92t-91 149.5t-32.5 204v201q0 117 33.5 203.5t93 146t139.5 89.5t172 30q90 0 163 -37t134 -101v60 q0 29 18.5 49t47.5 20t48 -19.5t19 -47.5v-731q0 -47 10.5 -84t24.5 -63.5t28.5 -43t20.5 -24.5h-2zM858 678q0 143 -81 231t-216 88t-217 -80.5t-82 -222.5v-262q0 -143 79 -227t214 -84t219 84t84 227v246zM803 1546q0 -47 -18.5 -89t-49.5 -72.5t-73 -49t-89 -18.5 t-89 18.5t-72.5 49t-49 72.5t-18.5 89t18.5 89t49 73t72.5 49.5t89 18.5t89 -18.5t73 -49.5t49.5 -73t18.5 -89zM674 1546q0 41 -30 71t-71 30t-70.5 -30t-29.5 -71t29.5 -70.5t70.5 -29.5t71 29.5t30 70.5z" />
<glyph unicode="&#xe6;" horiz-adv-x="1871" d="M1747 555q0 -29 -19.5 -48.5t-48.5 -19.5h-665v-16q0 -68 25.5 -130t71.5 -108.5t111.5 -74t147.5 -27.5h139q29 0 48.5 -19.5t19.5 -48.5t-19.5 -48t-48.5 -19h-155q-100 0 -182 31.5t-144 87.5v-54q0 -29 -19.5 -48t-47.5 -19q-29 0 -48.5 19.5t-19.5 47.5v52 q-55 -59 -136 -93t-192 -34q-90 0 -170 33.5t-139 98t-93 156t-34 207.5v168q0 117 35 207t95 153.5t141 96.5t173 33q123 0 220.5 -60.5t156.5 -171.5q57 115 142.5 173.5t222.5 58.5q90 0 169 -33t137 -96.5t92 -153.5t34 -207v-94zM1604 680q0 143 -78 234.5t-213 91.5 q-66 0 -120 -22.5t-94 -63.5t-62.5 -98.5t-22.5 -125.5v-75h590v59zM868 664q0 72 -21.5 133t-60 107t-93 73t-120.5 27q-68 0 -123 -24t-95 -67t-62.5 -102t-22.5 -131v-229q0 -72 21.5 -132.5t60.5 -105.5t93.5 -69.5t119.5 -24.5q68 0 123 24.5t95 69.5t62.5 105.5 t22.5 132.5v213z" />
<glyph unicode="&#xe7;" horiz-adv-x="1005" d="M868 119q-35 -51 -87 -78t-99 -39q-55 -14 -117 -16q-92 0 -172 31.5t-140 92t-95 149.5t-35 204v205q0 117 35 205t95 147t140 89t172 30q57 -2 113 -17q47 -12 98 -37.5t92 -72.5q20 -18 20.5 -46t-20.5 -51q-18 -18 -45.5 -18t-48.5 18l-22 22q-16 15 -42 30.5t-62 27 t-83 11.5q-135 0 -218 -82t-83 -226v-266q0 -143 83 -227t218 -84q47 0 83 12t61.5 27.5t41 32t23.5 22.5q20 18 48 18t46 -18q20 -23 20 -49.5t-20 -46.5zM547 -213q-8 -27 -22.5 -40t-31 -19.5t-33 -7.5t-30.5 -1h-94q-29 0 -47.5 19.5t-18.5 48.5t19.5 48.5t48.5 19.5h94 l53 157h138z" />
<glyph unicode="&#xe8;" horiz-adv-x="1085" d="M989 553q0 -29 -18.5 -48.5t-46.5 -19.5h-660q0 -158 84 -257t258 -99h185q29 0 47 -19.5t18 -48.5t-18.5 -48t-46.5 -19h-197q-106 0 -193.5 34.5t-149 100.5t-95 161t-33.5 218v139q0 117 33.5 207t93 153.5t139.5 96.5t172 33t170 -33t135.5 -96.5t90 -153.5 t32.5 -207v-94zM848 678q0 143 -76 234.5t-211 91.5q-68 0 -122 -25t-93 -68t-60.5 -102t-21.5 -131v-60h584v60zM646 1335q-20 -20 -48 -21t-49 19l-250 252q-20 23 -20 49.5t20 46.5q18 20 45 20.5t48 -20.5l254 -254q20 -20 20 -47t-20 -45z" />
<glyph unicode="&#xe9;" horiz-adv-x="1085" d="M989 553q0 -29 -18.5 -48.5t-46.5 -19.5h-660q0 -158 84 -257t258 -99h185q29 0 47 -19.5t18 -48.5t-18.5 -48t-46.5 -19h-197q-106 0 -193.5 34.5t-149 100.5t-95 161t-33.5 218v139q0 117 33.5 207t93 153.5t139.5 96.5t172 33t170 -33t135.5 -96.5t90 -153.5 t32.5 -207v-94zM848 678q0 143 -76 234.5t-211 91.5q-68 0 -122 -25t-93 -68t-60.5 -102t-21.5 -131v-60h584v60zM504 1333q-20 -20 -46.5 -20t-47.5 20q-20 20 -21 49t19 48l252 249q23 23 49.5 22t46.5 -22q20 -20 19.5 -45.5t-19.5 -46.5z" />
<glyph unicode="&#xea;" horiz-adv-x="1085" d="M989 553q0 -29 -18.5 -48.5t-46.5 -19.5h-660q0 -158 84 -257t258 -99h185q29 0 47 -19.5t18 -48.5t-18.5 -48t-46.5 -19h-197q-106 0 -193.5 34.5t-149 100.5t-95 161t-33.5 218v139q0 117 33.5 207t93 153.5t139.5 96.5t172 33t170 -33t135.5 -96.5t90 -153.5 t32.5 -207v-94zM848 678q0 143 -76 234.5t-211 91.5q-68 0 -122 -25t-93 -68t-60.5 -102t-21.5 -131v-60h584v60zM862 1335q-20 -20 -48 -20t-48 20l-205 203l-203 -203q-20 -20 -48 -20t-48 20t-20.5 47t20.5 48l252 251q20 20 47 21q23 0 47 -21l254 -251q20 -18 19 -46.5 t-19 -48.5z" />
<glyph unicode="&#xeb;" horiz-adv-x="1091" d="M989 553q0 -29 -18.5 -48.5t-46.5 -19.5h-660q0 -158 84 -257t258 -99h185q29 0 47 -19.5t18 -48.5t-18.5 -48t-46.5 -19h-197q-106 0 -193.5 34.5t-149 100.5t-95 161t-33.5 218v139q0 117 33.5 207t93 153.5t139.5 96.5t172 33t170 -33t135.5 -96.5t90 -153.5 t32.5 -207v-94zM848 678q0 143 -76 234.5t-211 91.5q-68 0 -122 -25t-93 -68t-60.5 -102t-21.5 -131v-60h584v60zM1065 1514q0 -43 -16 -80t-44 -64.5t-65 -44t-80 -16.5q-86 0 -145 59.5t-59 145.5t59 145.5t145 59.5q43 0 80 -16.5t65 -44.5t44 -64.5t16 -79.5zM494 1514 q0 -43 -16.5 -80t-44 -64.5t-64.5 -44t-80 -16.5q-86 0 -145.5 59.5t-59.5 145.5t59.5 145.5t145.5 59.5q43 0 80 -16.5t64.5 -44.5t44 -64.5t16.5 -79.5z" />
<glyph unicode="&#xec;" horiz-adv-x="800" d="M690 68q0 -29 -19.5 -48.5t-47.5 -19.5h-426q-29 0 -48.5 19.5t-19.5 48.5t18.5 48t47.5 19h147v852h-145q-29 0 -48.5 20.5t-19.5 49.5t18.5 47t47.5 18h213q29 0 50 -22.5t21 -50.5v-52v-862h144q29 0 48 -19t19 -48zM543 1335q-20 -20 -48 -21t-49 19l-250 252 q-20 23 -20 49.5t20 46.5q18 20 45 20.5t48 -20.5l254 -254q20 -20 20 -47t-20 -45z" />
<glyph unicode="&#xed;" horiz-adv-x="800" d="M690 68q0 -29 -19.5 -48.5t-47.5 -19.5h-426q-29 0 -48.5 19.5t-19.5 48.5t18.5 48t47.5 19h147v852h-145q-29 0 -48.5 20.5t-19.5 49.5t18.5 47t47.5 18h213q29 0 50 -22.5t21 -50.5v-52v-862h144q29 0 48 -19t19 -48zM401 1333q-20 -20 -46.5 -20t-47.5 20 q-20 20 -21 49t19 48l252 249q23 23 49.5 22t46.5 -22q20 -20 19.5 -45.5t-19.5 -46.5z" />
<glyph unicode="&#xee;" horiz-adv-x="800" d="M690 68q0 -29 -19.5 -48.5t-47.5 -19.5h-426q-29 0 -48.5 19.5t-19.5 48.5t18.5 48t47.5 19h147v852h-145q-29 0 -48.5 20.5t-19.5 49.5t18.5 47t47.5 18h213q29 0 50 -22.5t21 -50.5v-52v-862h144q29 0 48 -19t19 -48zM707 1335q-20 -20 -48 -20t-48 20l-205 203 l-203 -203q-20 -20 -48 -20t-48 20t-20.5 47t20.5 48l252 251q20 20 47 21q23 0 47 -21l254 -251q20 -18 19 -46.5t-19 -48.5z" />
<glyph unicode="&#xef;" horiz-adv-x="913" d="M803 68q0 -29 -19.5 -48.5t-48.5 -19.5h-426q-29 0 -48 19.5t-19 48.5t18.5 48t46.5 19h148v852h-146q-29 0 -48 20.5t-19 49.5t18.5 47t46.5 18h213q29 0 50.5 -22.5t21.5 -50.5v-52v-862h143q29 0 48.5 -19t19.5 -48zM981 1516q0 -43 -16.5 -80t-44 -65t-64.5 -44 t-80 -16q-86 0 -145.5 59.5t-59.5 145.5t59.5 145t145.5 59q43 0 80 -16t64.5 -44t44 -64.5t16.5 -79.5zM410 1516q0 -43 -16.5 -80t-44 -65t-64.5 -44t-80 -16q-86 0 -145.5 59.5t-59.5 145.5t59.5 145t145.5 59q43 0 80 -16t64.5 -44t44 -64.5t16.5 -79.5z" />
<glyph unicode="&#xf0;" horiz-adv-x="1329" d="M1247 1157q0 -29 -19.5 -48t-47.5 -19h-138v-644q0 -100 -29.5 -184t-84.5 -143q-59 -59 -135 -96t-183 -37q-92 0 -170 33.5t-134 98t-89 156t-33 207.5v39q0 117 33 207t89 153.5t134 96.5t170 33q98 0 169 -39t128 -111v230h-139q-29 0 -48.5 19t-19.5 48t19.5 48.5 t48.5 19.5h139v182q0 29 19.5 48.5t48.5 19.5t48 -19.5t19 -48.5v-182h138q29 0 48 -19.5t19 -48.5zM907 524q0 72 -21.5 135.5t-60.5 111.5t-93 77t-122 29q-135 0 -209.5 -91.5t-74.5 -234.5v-100q0 -143 74.5 -236.5t209.5 -93.5q68 0 123 28.5t94 76.5t59.5 111.5 t20.5 135.5v51z" />
<glyph unicode="&#xf1;" horiz-adv-x="1089" d="M961 59q0 -29 -19.5 -47t-48.5 -18t-48.5 19.5t-19.5 47.5v631q0 154 -55 233t-203 79q-72 0 -124 -28t-85.5 -73t-51 -100t-17.5 -113v-629q0 -29 -19.5 -48t-48.5 -19t-48 19.5t-19 47.5v996q0 29 19.5 48t47.5 19q29 0 48.5 -18.5t19.5 -46.5v-70q25 33 52.5 59.5 t60 47t73.5 32t92 11.5q104 0 179 -27t123.5 -83t70 -147t21.5 -220v-603zM944 1427q-78 -102 -184 -110q-18 -2 -34.5 -3t-35 1t-41 10t-49.5 25l-68 41q-29 16 -51 17t-43 -3q-47 -8 -90 -62q-16 -23 -42.5 -25.5t-49.5 13.5t-26 44t14 50q41 53 86 78t98 33q35 4 71 1 t89 -34l67 -41q29 -16 51.5 -17t45.5 3q45 8 88 61q16 23 42.5 26t49.5 -13t25.5 -44t-13.5 -51z" />
<glyph unicode="&#xf2;" horiz-adv-x="1130" d="M997 449q0 -117 -34.5 -203t-95 -144.5t-140.5 -87t-172 -28.5t-172 28.5t-140.5 87t-95 144.5t-34.5 203v219q0 117 34.5 205t95 147t140.5 89t172 30t172 -30t140.5 -89t95 -147.5t34.5 -204.5v-219zM856 698q0 143 -84 224.5t-217 81.5q-135 0 -219 -81t-84 -225v-282 q0 -143 84 -219t219 -76q133 0 217 75.5t84 219.5v282zM664 1335q-20 -20 -48 -21t-49 19l-250 252q-20 23 -20 49.5t20 46.5q18 20 45 20.5t48 -20.5l254 -254q20 -20 20 -47t-20 -45z" />
<glyph unicode="&#xf3;" horiz-adv-x="1130" d="M997 449q0 -117 -34.5 -203t-95 -144.5t-140.5 -87t-172 -28.5t-172 28.5t-140.5 87t-95 144.5t-34.5 203v219q0 117 34.5 205t95 147t140.5 89t172 30t172 -30t140.5 -89t95 -147.5t34.5 -204.5v-219zM856 698q0 143 -84 224.5t-217 81.5q-135 0 -219 -81t-84 -225v-282 q0 -143 84 -219t219 -76q133 0 217 75.5t84 219.5v282zM522 1333q-20 -20 -46.5 -20t-47.5 20q-20 20 -21 49t19 48l252 249q23 23 49.5 22t46.5 -22q20 -20 19.5 -45.5t-19.5 -46.5z" />
<glyph unicode="&#xf4;" horiz-adv-x="1130" d="M997 449q0 -117 -34.5 -203t-95 -144.5t-140.5 -87t-172 -28.5t-172 28.5t-140.5 87t-95 144.5t-34.5 203v219q0 117 34.5 205t95 147t140.5 89t172 30t172 -30t140.5 -89t95 -147.5t34.5 -204.5v-219zM856 698q0 143 -84 224.5t-217 81.5q-135 0 -219 -81t-84 -225v-282 q0 -143 84 -219t219 -76q133 0 217 75.5t84 219.5v282zM870 1335q-20 -20 -48 -20t-48 20l-205 203l-203 -203q-20 -20 -48 -20t-48 20t-20.5 47t20.5 48l252 251q20 20 47 21q23 0 47 -21l254 -251q20 -18 19 -46.5t-19 -48.5z" />
<glyph unicode="&#xf5;" horiz-adv-x="1130" d="M997 449q0 -117 -34.5 -203t-95 -144.5t-140.5 -87t-172 -28.5t-172 28.5t-140.5 87t-95 144.5t-34.5 203v219q0 117 34.5 205t95 147t140.5 89t172 30t172 -30t140.5 -89t95 -147.5t34.5 -204.5v-219zM856 698q0 143 -84 224.5t-217 81.5q-135 0 -219 -81t-84 -225v-282 q0 -143 84 -219t219 -76q133 0 217 75.5t84 219.5v282zM930 1427q-78 -102 -184 -110q-18 -2 -34.5 -3t-35 1t-41 10t-49.5 25l-68 41q-29 16 -51 17t-43 -3q-47 -8 -90 -62q-16 -23 -42.5 -25.5t-49.5 13.5t-26 44t14 50q41 53 86 78t98 33q35 4 71 1t89 -34l67 -41 q29 -16 51.5 -17t45.5 3q45 8 88 61q16 23 42.5 26t49.5 -13t25.5 -44t-13.5 -51z" />
<glyph unicode="&#xf6;" horiz-adv-x="1130" d="M997 449q0 -117 -34.5 -203t-95 -144.5t-140.5 -87t-172 -28.5t-172 28.5t-140.5 87t-95 144.5t-34.5 203v219q0 117 34.5 205t95 147t140.5 89t172 30t172 -30t140.5 -89t95 -147.5t34.5 -204.5v-219zM856 698q0 143 -84 224.5t-217 81.5q-135 0 -219 -81t-84 -225v-282 q0 -143 84 -219t219 -76q133 0 217 75.5t84 219.5v282zM1075 1516q0 -43 -16 -80t-44 -64.5t-65 -44t-80 -16.5q-86 0 -145 59.5t-59 145.5t59 145.5t145 59.5q43 0 80 -16.5t65 -44.5t44 -64.5t16 -79.5zM504 1516q0 -43 -16.5 -80t-44 -64.5t-64.5 -44t-80 -16.5 q-86 0 -145.5 59.5t-59.5 145.5t59.5 145.5t145.5 59.5q43 0 80 -16.5t64.5 -44.5t44 -64.5t16.5 -79.5z" />
<glyph unicode="&#xf7;" d="M739 1100q0 -43 -16 -80t-44 -64.5t-64.5 -44t-79.5 -16.5q-86 0 -145.5 59.5t-59.5 145.5t59.5 145.5t145.5 59.5q43 0 79.5 -16.5t64.5 -44t44 -64.5t16 -80zM905 741q0 -29 -19.5 -49t-47.5 -20h-607q-29 0 -47 20.5t-18 48.5q0 29 18.5 47.5t46.5 18.5h607 q29 0 48 -18.5t19 -47.5zM739 365q0 -43 -16 -81t-44 -66t-64.5 -44t-79.5 -16t-80 16t-65 44t-44 66t-16 81q0 86 59.5 145t145.5 59q43 0 79.5 -16t64.5 -44t44 -64.5t16 -79.5z" />
<glyph unicode="&#xf8;" horiz-adv-x="1236" d="M1022 877q45 -102 45 -228v-184q0 -117 -35 -206t-95 -149.5t-141 -92t-171 -31.5q-102 0 -190.5 38.5t-149.5 114.5l-109 -108q-20 -20 -48 -20.5t-46 20.5q-20 20 -20.5 46.5t20.5 47.5l135 135q-35 92 -35 205v184q0 117 35 207t95.5 153.5t140 96.5t172.5 33 q199 0 325 -146l113 113q20 20 47 20t47 -20t20.5 -47t-20.5 -47zM854 897q-41 51 -99.5 80t-129.5 29q-68 0 -123.5 -25t-95 -68t-61 -102t-21.5 -131v-246q0 -35 6 -61zM924 680q0 43 -11 88l-530 -532q80 -115 242 -115q135 0 217 85t82 228v246z" />
<glyph unicode="&#xf9;" horiz-adv-x="1126" d="M942 61q0 -29 -19.5 -48t-48.5 -19t-48 19.5t-19 47.5v74q-49 -66 -112.5 -107.5t-166.5 -41.5q-106 0 -181 25.5t-123 83t-69.5 147.5t-21.5 219v596q0 29 19.5 48t48.5 19t48 -19.5t19 -47.5v-627q0 -154 55.5 -232.5t204.5 -78.5q70 0 122 27.5t87 71.5t52.5 99.5 t17.5 112.5v627q0 29 19.5 48t47.5 19q29 0 48.5 -19.5t19.5 -47.5v-996zM664 1335q-20 -20 -48 -21t-49 19l-250 252q-20 23 -20 49.5t20 46.5q18 20 45 20.5t48 -20.5l254 -254q20 -20 20 -47t-20 -45z" />
<glyph unicode="&#xfa;" horiz-adv-x="1126" d="M942 61q0 -29 -19.5 -48t-48.5 -19t-48 19.5t-19 47.5v74q-49 -66 -112.5 -107.5t-166.5 -41.5q-106 0 -181 25.5t-123 83t-69.5 147.5t-21.5 219v596q0 29 19.5 48t48.5 19t48 -19.5t19 -47.5v-627q0 -154 55.5 -232.5t204.5 -78.5q70 0 122 27.5t87 71.5t52.5 99.5 t17.5 112.5v627q0 29 19.5 48t47.5 19q29 0 48.5 -19.5t19.5 -47.5v-996zM522 1333q-20 -20 -46.5 -20t-47.5 20q-20 20 -21 49t19 48l252 249q23 23 49.5 22t46.5 -22q20 -20 19.5 -45.5t-19.5 -46.5z" />
<glyph unicode="&#xfb;" horiz-adv-x="1126" d="M942 61q0 -29 -19.5 -48t-48.5 -19t-48 19.5t-19 47.5v74q-49 -66 -112.5 -107.5t-166.5 -41.5q-106 0 -181 25.5t-123 83t-69.5 147.5t-21.5 219v596q0 29 19.5 48t48.5 19t48 -19.5t19 -47.5v-627q0 -154 55.5 -232.5t204.5 -78.5q70 0 122 27.5t87 71.5t52.5 99.5 t17.5 112.5v627q0 29 19.5 48t47.5 19q29 0 48.5 -19.5t19.5 -47.5v-996zM836 1335q-20 -20 -48 -20t-49 20l-204 203l-203 -203q-20 -20 -48 -20t-48 20t-20.5 47t20.5 48l251 251q20 20 48 21q23 0 47 -21l254 -251q20 -18 19 -46.5t-19 -48.5z" />
<glyph unicode="&#xfc;" horiz-adv-x="1095" d="M942 61q0 -29 -19.5 -48t-48.5 -19t-48 19.5t-19 47.5v74q-49 -66 -112.5 -107.5t-166.5 -41.5q-106 0 -181 25.5t-123 83t-69.5 147.5t-21.5 219v596q0 29 19.5 48t48.5 19t48 -19.5t19 -47.5v-627q0 -154 55.5 -232.5t204.5 -78.5q70 0 122 27.5t87 71.5t52.5 99.5 t17.5 112.5v627q0 29 19.5 48t47.5 19q29 0 48.5 -19.5t19.5 -47.5v-996zM1030 1514q0 -43 -16 -80t-44 -64.5t-65 -44t-80 -16.5q-86 0 -145 59.5t-59 145.5t59 145.5t145 59.5q43 0 80 -16.5t65 -44.5t44 -64.5t16 -79.5zM459 1514q0 -43 -16.5 -80t-44 -64.5t-64.5 -44 t-80 -16.5q-86 0 -145.5 59.5t-59.5 145.5t59.5 145.5t145.5 59.5q43 0 80 -16.5t64.5 -44.5t44 -64.5t16.5 -79.5z" />
<glyph unicode="&#xfd;" horiz-adv-x="987" d="M453 -303q-18 -51 -53 -58.5t-64 -7.5h-92q-29 0 -48.5 18.5t-19.5 47.5t19.5 48t48.5 19h94l106 304l-358 976q-5 12 -5 24q0 14 7 28q12 25 41 34q11 3 21 4q16 0 30 -9q23 -13 33 -40l305 -821l295 817q10 29 33 43q16 10 33 10q8 0 16 -1q29 -8 44 -32q9 -14 9 -30 q0 -11 -4 -22zM1018 1520q0 -43 -16 -80t-44 -64.5t-65 -44t-80 -16.5q-86 0 -145 59.5t-59 145.5t59 145.5t145 59.5q43 0 80 -16.5t65 -44.5t44 -64.5t16 -79.5zM447 1520q0 -43 -16.5 -80t-44 -64.5t-64.5 -44t-80 -16.5q-86 0 -145.5 59.5t-59.5 145.5t59.5 145.5 t145.5 59.5q43 0 80 -16.5t64.5 -44.5t44 -64.5t16.5 -79.5z" />
<glyph unicode="&#xfe;" horiz-adv-x="1163" d="M1040 446q0 -117 -32.5 -202.5t-89 -143t-134 -86t-168.5 -28.5q-86 0 -163.5 27.5t-133.5 82.5v-397q0 -29 -19 -48.5t-48 -19.5t-48.5 19.5t-19.5 48.5v1708q0 29 19.5 48.5t48.5 19.5t48 -19.5t19 -48.5v-412q47 59 118 101.5t179 42.5q90 0 168 -29t134.5 -86 t89 -144t32.5 -202v-232zM899 709q0 143 -74.5 219t-208.5 76q-55 0 -108 -24t-95 -65t-68 -100t-26 -129v-270q0 -145 81 -221t216 -76q133 0 208 75.5t75 221.5v293z" />
<glyph unicode="&#xff;" horiz-adv-x="1103" d="M506 -303q-18 -51 -53 -58.5t-64 -7.5h-92q-29 0 -48.5 18.5t-19.5 47.5t19.5 48t48.5 19h94l107 304l-361 976q-10 27 2.5 52.5t40.5 33.5q27 10 51.5 -4t34.5 -41l303 -821l297 817q6 29 30 44.5t52 7.5q27 -6 41.5 -31t7.5 -53zM1063 1516q0 -43 -16.5 -80t-44 -65 t-64.5 -44t-80 -16q-86 0 -145.5 59.5t-59.5 145.5t59.5 145t145.5 59q43 0 80 -16t64.5 -44t44 -64.5t16.5 -79.5zM492 1516q0 -43 -16.5 -80t-44.5 -65t-64.5 -44t-79.5 -16q-86 0 -145.5 59.5t-59.5 145.5t59.5 145t145.5 59q43 0 79.5 -16t64.5 -44t44.5 -64.5 t16.5 -79.5z" />
<glyph unicode="&#x131;" horiz-adv-x="800" d="M690 68q0 -29 -19.5 -48.5t-47.5 -19.5h-426q-29 0 -48.5 19.5t-19.5 48.5t18.5 48t47.5 19h147v852h-145q-29 0 -48.5 20.5t-19.5 49.5t18.5 47t47.5 18h213q29 0 50 -22.5t21 -50.5v-52v-862h144q29 0 48 -19t19 -48z" />
<glyph unicode="&#x152;" horiz-adv-x="1755" d="M1616 68q0 -29 -19.5 -48.5t-48.5 -19.5h-290h-183h-117h-91h-107h-164q-90 0 -169 26.5t-138.5 83t-96 147.5t-45.5 220q-10 160 -9 287t9 231q8 125 44 216.5t94.5 149.5t137.5 86t173 28h164h107h91h117h183h292q29 0 47.5 -18.5t18.5 -47.5t-19.5 -48.5t-48.5 -19.5 h-534v-520h454q29 0 48.5 -19.5t19.5 -47.5q0 -29 -19.5 -48.5t-48.5 -19.5l-454 2v-555h536q29 0 47.5 -18t18.5 -47zM877 1341l-281 -2q-133 -2 -219 -87t-96 -226q-6 -72 -8.5 -152.5t-2.5 -159.5t2 -148.5t9 -119.5q18 -156 100 -234.5t215 -78.5h281v1208z" />
<glyph unicode="&#x153;" horiz-adv-x="1691" d="M1565 555q0 -29 -19.5 -48.5t-48.5 -19.5h-666q0 -72 28 -137t77 -116.5t114.5 -82t139.5 -30.5h141q29 0 48.5 -19.5t19.5 -48.5t-19.5 -48t-48.5 -19h-157h-603q-92 0 -172 31.5t-140 92t-95 149.5t-35 206v184q0 117 35 207t95 153.5t140 96.5t172 33h562 q90 0 168.5 -33t137 -96.5t92.5 -153.5t34 -207v-94zM1423 680q0 143 -78.5 234.5t-211.5 91.5q-68 0 -123.5 -25t-95.5 -68t-61.5 -102t-21.5 -131v-59h592v59zM854 121q-90 86 -127 177t-37 214v137q0 129 36 213t87 144h-242q-68 0 -123 -25t-95 -68t-61.5 -102 t-21.5 -131v-246q0 -143 83 -228t218 -85h283z" />
<glyph unicode="&#x178;" horiz-adv-x="1075" d="M506 66q-23 -51 -55.5 -58.5t-61.5 -7.5h-117q-29 0 -48 18.5t-19 47.5t19.5 48t47.5 19h111l170 404l-422 843q-9 15 -9 31q0 10 4 21q9 27 34 41q15 9 30 8q10 0 20 -3q26 -9 40 -36l371 -744l307 744q12 31 39 36q8 2 15 1q18 0 36 -9q27 -12 34 -38q3 -11 3 -22 q0 -15 -6 -30zM1110 1866q0 -43 -16 -80t-44 -64.5t-65 -44t-80 -16.5q-86 0 -145 59.5t-59 145.5t59 145.5t145 59.5q43 0 80 -16.5t65 -44.5t44 -64.5t16 -79.5zM539 1866q0 -43 -16.5 -80t-44 -64.5t-64.5 -44t-80 -16.5q-86 0 -145.5 59.5t-59.5 145.5t59.5 145.5 t145.5 59.5q43 0 80 -16.5t64.5 -44.5t44 -64.5t16.5 -79.5z" />
<glyph unicode="&#x2c6;" horiz-adv-x="1019" d="M809 1335q-20 -20 -48 -20t-48 20l-205 203l-203 -203q-20 -20 -48 -20t-48 20t-20.5 47t20.5 48l252 251q20 20 47 21q23 0 47 -21l254 -251q20 -18 19 -46.5t-19 -48.5z" />
<glyph unicode="&#x2da;" horiz-adv-x="499" d="M500 1546q0 -47 -18.5 -89t-49.5 -72.5t-73 -49t-89 -18.5t-89 18.5t-72.5 49t-49 72.5t-18.5 89t18.5 89t49 73t72.5 49.5t89 18.5t89 -18.5t73 -49.5t49.5 -73t18.5 -89zM371 1546q0 41 -30 71t-71 30t-70.5 -30t-29.5 -71t29.5 -70.5t70.5 -29.5t71 29.5t30 70.5z" />
<glyph unicode="&#x2dc;" horiz-adv-x="862" d="M944 1427q-78 -102 -184 -110q-18 -2 -34.5 -3t-35 1t-41 10t-49.5 25l-68 41q-29 16 -51 17t-43 -3q-47 -8 -90 -62q-16 -23 -42.5 -25.5t-49.5 13.5t-26 44t14 50q41 53 86 78t98 33q35 4 71 1t89 -34l67 -41q29 -16 51.5 -17t45.5 3q45 8 88 61q16 23 42.5 26 t49.5 -13t25.5 -44t-13.5 -51z" />
<glyph unicode="&#x2000;" horiz-adv-x="1060" />
<glyph unicode="&#x2001;" horiz-adv-x="2123" />
<glyph unicode="&#x2002;" horiz-adv-x="1060" />
<glyph unicode="&#x2003;" horiz-adv-x="2123" />
<glyph unicode="&#x2004;" horiz-adv-x="706" />
<glyph unicode="&#x2005;" horiz-adv-x="530" />
<glyph unicode="&#x2006;" horiz-adv-x="352" />
<glyph unicode="&#x2007;" horiz-adv-x="352" />
<glyph unicode="&#x2008;" horiz-adv-x="264" />
<glyph unicode="&#x2009;" horiz-adv-x="423" />
<glyph unicode="&#x200a;" horiz-adv-x="116" />
<glyph unicode="&#x2010;" d="M905 741q0 -29 -19.5 -49t-47.5 -20h-607q-29 0 -47 20.5t-18 48.5q0 29 18.5 47.5t46.5 18.5h607q29 0 48 -18.5t19 -47.5z" />
<glyph unicode="&#x2011;" d="M905 741q0 -29 -19.5 -49t-47.5 -20h-607q-29 0 -47 20.5t-18 48.5q0 29 18.5 47.5t46.5 18.5h607q29 0 48 -18.5t19 -47.5z" />
<glyph unicode="&#x2012;" d="M905 741q0 -29 -19.5 -49t-47.5 -20h-607q-29 0 -47 20.5t-18 48.5q0 29 18.5 47.5t46.5 18.5h607q29 0 48 -18.5t19 -47.5z" />
<glyph unicode="&#x2013;" d="M905 741q0 -29 -19.5 -49t-47.5 -20h-607q-29 0 -47 20.5t-18 48.5q0 29 18.5 47.5t46.5 18.5h607q29 0 48 -18.5t19 -47.5z" />
<glyph unicode="&#x2014;" horiz-adv-x="1789" d="M1624 741q0 -29 -19.5 -49t-48.5 -20h-1325q-29 0 -47 20.5t-18 48.5q0 29 18.5 47.5t46.5 18.5h1325q29 0 48.5 -18.5t19.5 -47.5z" />
<glyph unicode="&#x2018;" horiz-adv-x="532" d="M492 1567q0 -43 -16.5 -81t-44.5 -65.5t-64.5 -44t-79.5 -16.5q-18 0 -33.5 4t-30.5 10q25 -43 63 -69.5t60 -51.5q20 -20 19.5 -48.5t-21.5 -47.5q-41 -39 -96 0q-27 18 -77 67.5t-77 135.5q-2 18 -6 47q-4 25 -6 63.5t0 96.5q0 43 16.5 79.5t44 64.5t64.5 44.5t80 16.5 q86 0 145.5 -59.5t59.5 -145.5z" />
<glyph unicode="&#x2019;" horiz-adv-x="532" d="M451 1567q0 -111 -7 -160q-4 -29 -8 -47q-27 -86 -76 -135t-75 -68q-55 -39 -97 0q-23 20 -22.5 47t20.5 49q23 23 61 50.5t60 70.5q-14 -6 -28.5 -10t-32.5 -4q-43 0 -80 16.5t-64.5 44t-44 65.5t-16.5 81q0 86 59.5 145.5t145.5 59.5q43 0 79.5 -16.5t64.5 -44.5 t44.5 -64.5t16.5 -79.5z" />
<glyph unicode="&#x201a;" horiz-adv-x="532" d="M451 193q0 -111 -7 -160q-4 -29 -8 -47q-27 -86 -76 -135.5t-75 -67.5q-57 -39 -97 0q-23 20 -22.5 47t20.5 49q23 23 61 50.5t60 70.5q-14 -4 -28.5 -9t-32.5 -5q-43 0 -80 16t-64.5 44t-44 66t-16.5 81q0 86 59.5 145t145.5 59q43 0 79.5 -16t64.5 -44t44.5 -64.5 t16.5 -79.5z" />
<glyph unicode="&#x201c;" horiz-adv-x="1064" d="M1020 1567q0 -43 -16.5 -81t-44 -65.5t-64.5 -44t-80 -16.5q-16 0 -31.5 5t-29.5 9q23 -41 60.5 -69.5t59.5 -51.5q20 -20 20.5 -47.5t-22.5 -48.5q-41 -39 -96 0q-27 20 -76 68.5t-75 134.5q-4 18 -9 47q-4 25 -6 63.5t0 96.5q0 43 16.5 79.5t44 64.5t64.5 44.5t80 16.5 q86 0 145.5 -59.5t59.5 -145.5zM492 1567q0 -43 -16.5 -81t-44.5 -65.5t-64.5 -44t-79.5 -16.5q-18 0 -33.5 5t-30.5 9q25 -41 63 -69.5t60 -51.5q18 -20 18.5 -48.5t-20.5 -47.5q-41 -39 -96 0q-12 10 -33.5 26.5t-43 41t-43.5 58.5t-34 77q-2 18 -6 47q-4 25 -6 63.5 t0 96.5q0 43 16.5 79.5t44 64.5t64.5 44.5t80 16.5q86 0 145.5 -59.5t59.5 -145.5z" />
<glyph unicode="&#x201d;" horiz-adv-x="1060" d="M979 1567q0 -111 -6 -160q-4 -29 -6 -47q-12 -43 -34 -77t-43.5 -58.5t-43 -41t-33.5 -26.5q-55 -39 -96 0q-20 18 -20.5 47t18.5 49q23 23 61.5 51.5t61.5 69.5q-14 -4 -29.5 -9t-34.5 -5q-43 0 -80 16.5t-64.5 44t-44 65.5t-16.5 81q0 86 59.5 145.5t145.5 59.5 q43 0 80 -16.5t64.5 -44.5t44 -64.5t16.5 -79.5zM451 1567q0 -111 -7 -160q-4 -29 -8 -47q-27 -86 -76 -134t-75 -69q-55 -39 -97 0q-23 20 -22.5 48t20.5 48q23 23 61 51.5t60 69.5q-14 -4 -28.5 -9t-32.5 -5q-43 0 -80 16.5t-64.5 44t-44 65.5t-16.5 81q0 86 59.5 145.5 t145.5 59.5q43 0 79.5 -16.5t64.5 -44.5t44.5 -64.5t16.5 -79.5z" />
<glyph unicode="&#x201e;" horiz-adv-x="1060" d="M979 190q0 -111 -6 -159q-4 -29 -6 -47q-12 -43 -34 -76t-43.5 -57.5t-42.5 -41.5l-34 -28q-55 -39 -96 0q-20 18 -20.5 47t18.5 49q23 25 60.5 52.5t62.5 70.5q-14 -6 -29.5 -11t-34.5 -5q-43 0 -80 16t-64.5 44t-44 65.5t-16.5 80.5q0 86 59.5 145.5t145.5 59.5 q43 0 80 -16.5t64.5 -44t44 -64.5t16.5 -80zM451 190q0 -111 -7 -159q-4 -29 -8 -47q-27 -84 -76 -133.5t-75 -69.5q-55 -39 -97 0q-23 20 -22.5 48t20.5 48q23 25 61 52.5t60 70.5q-14 -6 -29.5 -11t-31.5 -5q-43 0 -80 16t-64.5 44t-44 65.5t-16.5 80.5q0 86 59.5 145.5 t145.5 59.5q43 0 79.5 -16.5t64.5 -44t44.5 -64.5t16.5 -80z" />
<glyph unicode="&#x2022;" horiz-adv-x="741" d="M575 737q0 -43 -16 -81t-44 -65.5t-64.5 -44t-79.5 -16.5t-80 16.5t-64.5 44t-44 65.5t-16.5 81q0 86 59.5 145.5t145.5 59.5q43 0 79.5 -16.5t64.5 -44t44 -64.5t16 -80z" />
<glyph unicode="&#x2026;" horiz-adv-x="1878" d="M1731 193q0 -43 -16.5 -81t-44.5 -66t-64.5 -44t-79.5 -16t-80 16t-64.5 44t-44 66t-16.5 81q0 86 59.5 145t145.5 59q43 0 79.5 -16t64.5 -44t44.5 -64.5t16.5 -79.5zM1161 193q0 -43 -15.5 -81t-43 -66t-64.5 -44t-80 -16t-79.5 16t-64.5 44t-44 66t-16 81q0 86 59 145 t145 59t144.5 -59t58.5 -145zM594 193q0 -43 -16.5 -81t-44 -66t-64.5 -44t-80 -16t-80 16t-64.5 44t-44 66t-16.5 81q0 86 59.5 145t145.5 59q43 0 80 -16t64.5 -44t44 -64.5t16.5 -79.5z" />
<glyph unicode="&#x202f;" horiz-adv-x="423" />
<glyph unicode="&#x2039;" horiz-adv-x="628" d="M496 246q-20 -20 -47 -20.5t-48 20.5l-251 252q-20 20 -21 47q0 23 21 47l251 254q18 20 46 20t49 -20q20 -20 20 -48t-20 -48l-203 -205l203 -203q20 -20 19 -48t-19 -48z" />
<glyph unicode="&#x203a;" horiz-adv-x="626" d="M498 545q0 -29 -19 -47l-254 -252q-20 -18 -46.5 -19.5t-45.5 19.5q-20 20 -21 46.5t21 49.5l203 203l-203 205q-23 23 -21.5 49t21.5 47q18 18 46 18t46 -18l254 -254q19 -18 19 -47z" />
<glyph unicode="&#x205f;" horiz-adv-x="530" />
<glyph unicode="&#x2122;" horiz-adv-x="1529" d="M1346 725q0 -23 -17.5 -40t-40.5 -17t-39 17t-16 40v485l-119 -211q-12 -23 -25.5 -35t-35.5 -12q-20 0 -33.5 12.5t-26.5 34.5l-119 211v-485q0 -23 -16 -40t-39 -17t-40 17t-17 40v690q0 23 17.5 39t39.5 16q23 0 35 -13t29 -42l170 -311l172 311q16 29 28.5 42 t34.5 13q23 0 40.5 -16t17.5 -39v-690zM666 1417q0 -25 -15.5 -41t-40.5 -16h-174v-635q0 -23 -16.5 -40t-38.5 -17q-25 0 -41 17t-16 40v635h-174q-25 0 -41.5 16.5t-16.5 40.5q0 23 17.5 38t40.5 15h460q25 0 40.5 -15t15.5 -38z" />
<glyph unicode="&#xe000;" horiz-adv-x="1130" d="M0 1130h1130v-1130h-1130v1130z" />
<glyph unicode="&#xfb01;" horiz-adv-x="1320" d="M1135 1513q0 -43 -16.5 -79.5t-44 -64.5t-64.5 -44t-80 -16q-86 0 -145.5 59t-59.5 145t59.5 145.5t145.5 59.5q43 0 80 -16t64.5 -44t44 -65t16.5 -80zM1219 68q0 -29 -19.5 -48.5t-48.5 -19.5h-389q-29 0 -48.5 19.5t-19.5 48.5t19.5 47t48.5 18h127v858h-510v-923 q0 -29 -19.5 -48.5t-48.5 -19.5t-48 19.5t-19 48.5v923h-74q-29 0 -48.5 19.5t-19.5 48.5t19.5 47t48.5 18h74q0 43 5 89.5t18.5 89.5t36 81.5t56.5 69.5q23 18 48.5 19.5t46.5 -17.5q20 -20 20 -47t-18 -49q-27 -29 -42.5 -54.5t-23.5 -52t-10 -58.5t-2 -71h575 q29 0 47.5 -18.5t20.5 -46.5l2 -68v-858h129q29 0 47.5 -18t18.5 -47z" />
<glyph unicode="&#xfb02;" horiz-adv-x="1320" d="M1219 68q0 -29 -19.5 -48.5t-48.5 -19.5h-389q-29 0 -48.5 19.5t-19.5 48.5t19.5 47t48.5 18h127v1208h-379q-35 0 -57.5 -11t-44.5 -36q-12 -14 -17.5 -36.5t-8.5 -49t-3 -51.5v-41h182q29 0 48.5 -19.5t19.5 -47.5q0 -29 -19.5 -48.5t-48.5 -19.5h-182v-913 q0 -29 -19.5 -48.5t-48.5 -19.5t-48 19.5t-19 48.5v913h-74q-29 0 -48.5 19.5t-19.5 48.5t19.5 48t48.5 19h74q0 43 3 90t14 91t33.5 82t63.5 65q25 16 66 23.5t82 7.5h450q29 0 48.5 -17.5t19.5 -46.5v-1278h129q29 0 47.5 -18t18.5 -47z" />
<glyph unicode="&#xfb03;" horiz-adv-x="2220" d="M1999 1516q0 -43 -16.5 -80t-44 -65t-64.5 -44t-80 -16q-86 0 -145 59.5t-59 145.5t59 145t145 59q43 0 80 -16t64.5 -44t44 -64.5t16.5 -79.5zM2118 68q0 -29 -19.5 -48.5t-48.5 -19.5h-426q-29 0 -48 19.5t-19 48.5t18.5 48t46.5 19h148v852h-146q-29 0 -48 20.5 t-19 49.5t18.5 47t46.5 18h213q29 0 50.5 -22.5t21.5 -50.5v-52v-862h143q29 0 48.5 -19t19.5 -48zM1383 1059q0 -29 -19.5 -49.5t-48.5 -20.5h-201v-928q0 -29 -18.5 -48t-46.5 -19q-29 0 -49.5 19.5t-20.5 47.5v928h-92q-29 0 -48.5 20.5t-19.5 49.5t18.5 47t47.5 18h94 q0 104 42 194.5t136 145.5q28 16 52 16h8q27 -3 41 -26q12 -20 10 -47t-25 -41q-39 -25 -64.5 -47.5t-39.5 -49t-19.5 -61t-5.5 -84.5h201q29 0 48.5 -18t19.5 -47zM666 1059q0 -29 -19.5 -49.5t-48.5 -20.5h-201v-928q0 -29 -18.5 -48t-46.5 -19q-29 0 -49.5 19.5 t-20.5 47.5v928h-92q-29 0 -48.5 20.5t-19.5 49.5t18.5 47t47.5 18h94q0 104 42 194.5t136 145.5q28 16 52 16h8q27 -3 41 -26q12 -20 10 -47t-25 -41q-39 -25 -64.5 -47.5t-39.5 -49t-19.5 -61t-5.5 -84.5h201q29 0 48.5 -18t19.5 -47z" />
<glyph unicode="&#xfb04;" horiz-adv-x="2240" d="M2139 66q0 -29 -19.5 -47.5t-48.5 -18.5h-426q-29 0 -48.5 18.5t-19.5 47.5t18.5 48t47.5 19h147v1206h-145q-29 0 -48.5 20.5t-19.5 49.5t18.5 47.5t47.5 18.5h215q29 0 48.5 -18.5t19.5 -47.5v-1276h145q29 0 48.5 -19t19.5 -48zM1383 1059q0 -29 -19.5 -49.5 t-48.5 -20.5h-201v-928q0 -29 -18.5 -48t-46.5 -19q-29 0 -49.5 19.5t-20.5 47.5v928h-92q-29 0 -48.5 20.5t-19.5 49.5t18.5 47t47.5 18h94q0 104 42 194.5t136 145.5q28 16 52 16h8q27 -3 41 -26q12 -20 10 -47t-25 -41q-39 -25 -64.5 -47.5t-39.5 -49t-19.5 -61 t-5.5 -84.5h201q29 0 48.5 -18t19.5 -47zM666 1059q0 -29 -19.5 -49.5t-48.5 -20.5h-201v-928q0 -29 -18.5 -48t-46.5 -19q-29 0 -49.5 19.5t-20.5 47.5v928h-92q-29 0 -48.5 20.5t-19.5 49.5t18.5 47t47.5 18h94q0 104 42 194.5t136 145.5q28 16 52 16h8q27 -3 41 -26 q12 -20 10 -47t-25 -41q-39 -25 -64.5 -47.5t-39.5 -49t-19.5 -61t-5.5 -84.5h201q29 0 48.5 -18t19.5 -47z" />
</font>
</defs>
</svg>
